<?xml version="1.0" encoding="utf-8"?>
<!-- Generator: Adobe Illustrator 23.1.1, SVG Export Plug-In . SVG Version: 6.00 Build 0)  -->
<svg version="1.1" id="Capa_1" xmlns="http://www.w3.org/2000/svg" xmlns:xlink="http://www.w3.org/1999/xlink" x="0px" y="0px"
	 viewBox="0 0 500 500" style="enable-background:new 0 0 500 500;" xml:space="preserve">
<style type="text/css">
	.st0{fill:#166493;}
	.st1{fill:#FFFFFF;stroke:#166493;stroke-width:0.5;stroke-miterlimit:10;}
	.st2{fill:#25A7E8;}
	.st3{fill:#9BCFEA;}
	.st4{fill:#BFBFBF;}
</style>
<g>
	<g>
		<path class="st0" d="M367,324H167c-8.28,0-15-6.72-15-15V188c0-8.28,6.72-15,15-15h200c8.28,0,15,6.72,15,15v121
			C382,317.28,375.28,324,367,324z"/>
	</g>
	<g>
		<path class="st0" d="M229,151h-62c-8.28,0-15,6.72-15,15v26c0,8.28,6.72,15,15,15h62c8.28,0,15-6.72,15-15v-26
			c0-0.52-0.03-1.03-0.08-1.53C243.16,156.9,236.77,151,229,151z"/>
	</g>
	<path class="st0" d="M250,162"/>
	<path class="st0" d="M251.5,172.5"/>
	<path class="st0" d="M245,169"/>
	<path class="st0" d="M243.97,165.05c0,0,0.11,6.95,8.57,7.95H244L243.97,165.05z"/>
</g>
<rect x="236" y="63" class="st1" width="138" height="170"/>
<g>
	<g>
		<path class="st2" d="M350,324H150c-8.28,0-15-6.72-15-15V188c0-8.28,6.72-15,15-15h200c8.28,0,15,6.72,15,15v121
			C365,317.28,358.28,324,350,324z"/>
	</g>
	<g>
		<path class="st2" d="M212,151h-62c-8.28,0-15,6.72-15,15v26c0,8.28,6.72,15,15,15h62c8.28,0,15-6.72,15-15v-26
			c0-0.52-0.03-1.03-0.08-1.53C226.16,156.9,219.77,151,212,151z"/>
	</g>
	<path class="st2" d="M233,162"/>
	<path class="st2" d="M234.5,172.5"/>
	<path class="st2" d="M228,169"/>
	<path class="st2" d="M226.97,165.05c0,0,0.11,6.95,8.57,7.95H227L226.97,165.05z"/>
</g>
<rect x="249.5" y="72.5" class="st0" width="111" height="31"/>
<path class="st3" d="M312.5,112h-62c-0.28,0-0.5,0.22-0.5,0.5l0,0c0,0.28,0.22,0.5,0.5,0.5h62c0.28,0,0.5-0.22,0.5-0.5l0,0
	C313,112.22,312.78,112,312.5,112z"/>
<path class="st3" d="M359.5,119h-109c-0.28,0-0.5,0.22-0.5,0.5l0,0c0,0.28,0.22,0.5,0.5,0.5h109c0.28,0,0.5-0.22,0.5-0.5l0,0
	C360,119.22,359.78,119,359.5,119z"/>
<path class="st3" d="M359.5,130h-109c-0.28,0-0.5,0.22-0.5,0.5l0,0c0,0.28,0.22,0.5,0.5,0.5h109c0.28,0,0.5-0.22,0.5-0.5l0,0
	C360,130.22,359.78,130,359.5,130z"/>
<path class="st3" d="M359.5,141h-109c-0.28,0-0.5,0.22-0.5,0.5l0,0c0,0.28,0.22,0.5,0.5,0.5h109c0.28,0,0.5-0.22,0.5-0.5l0,0
	C360,141.22,359.78,141,359.5,141z"/>
<path class="st3" d="M359.5,152h-109c-0.28,0-0.5,0.22-0.5,0.5l0,0c0,0.28,0.22,0.5,0.5,0.5h109c0.28,0,0.5-0.22,0.5-0.5l0,0
	C360,152.22,359.78,152,359.5,152z"/>
<path class="st3" d="M359.5,163h-109c-0.28,0-0.5,0.22-0.5,0.5l0,0c0,0.28,0.22,0.5,0.5,0.5h109c0.28,0,0.5-0.22,0.5-0.5l0,0
	C360,163.22,359.78,163,359.5,163z"/>
<rect x="250" y="148" class="st0" width="23" height="23"/>
<ellipse class="st4" cx="253" cy="374" rx="90" ry="9"/>
</svg>
