<svg xmlns="http://www.w3.org/2000/svg" xmlns:xlink="http://www.w3.org/1999/xlink" viewBox="0 0 339.59 295.04"><defs><style>.cls-1{fill:url(#Degradado_sin_nombre_28);}.cls-2{fill:url(#Degradado_sin_nombre_28-2);}.cls-3,.cls-44,.cls-45{fill:#b3aad3;}.cls-4{fill:#51c0b1;}.cls-5{fill:#f17fb1;}.cls-6{fill:#f0593b;}.cls-7{fill:url(#linear-gradient);}.cls-8{fill:url(#linear-gradient-2);}.cls-9{fill:url(#linear-gradient-3);}.cls-10{fill:url(#linear-gradient-4);}.cls-11{fill:url(#linear-gradient-5);}.cls-12{fill:#7cd0e8;}.cls-13{fill:#f9c1b9;}.cls-14{fill:#f16953;}.cls-15{fill:#f79828;}.cls-16{fill:#ffcc73;}.cls-17{fill:#ffcb73;}.cls-18,.cls-53{fill:#fff;}.cls-19{fill:#b4aad3;}.cls-20{fill:#f0593a;}.cls-21{fill:#f06952;}.cls-22{fill:#2b2b2b;}.cls-23{fill:#fbd7d6;}.cls-24{fill:#f17fb0;}.cls-25{fill:#f0678f;}.cls-26{fill:#c2b9db;}.cls-27{fill:#fab21b;}.cls-28{fill:#b2aad3;}.cls-29{fill:#fbb21a;}.cls-30{fill:#ec9796;}.cls-31{fill:#f4aea6;}.cls-32{fill:#4a4793;}.cls-33{fill:#0ab0be;}.cls-34{fill:#54c7e3;}.cls-35{fill:#7acfe7;}.cls-36{fill:#8c4b5d;}.cls-37{fill:#673542;}.cls-38{fill:#9ae3f4;}.cls-39{fill:none;}.cls-40{fill:#635ba7;}.cls-41{fill:#4fc1b2;}.cls-42{fill:#55c7e4;}.cls-43{fill:#f7f7f7;}.cls-44{font-size:21.09px;}.cls-44,.cls-45{font-family:ActionMan;}.cls-45{font-size:16.79px;}.cls-46{fill:#ebe9f4;}.cls-47{fill:#635ba8;}.cls-48{fill:url(#linear-gradient-6);}.cls-49{fill:url(#linear-gradient-7);}.cls-50{fill:url(#linear-gradient-8);}.cls-51,.cls-52,.cls-53,.cls-54{opacity:0.4;}.cls-51{fill:url(#linear-gradient-9);}.cls-52{fill:url(#linear-gradient-10);}.cls-54{fill:url(#linear-gradient-11);}.cls-55{fill:#9bcfea;}.cls-56{fill:#e3e3e8;}.cls-57{fill:#42b29f;}.cls-58{fill:#582938;}.cls-59{fill:#421c2a;}.cls-60{fill:#ed9996;}.cls-61{fill:#f27fb2;}.cls-62{fill:#8e4f4f;}.cls-63{fill:#3d1926;}.cls-64{fill:#f4b2ab;}.cls-65{fill:#111;}</style><linearGradient id="Degradado_sin_nombre_28" x1="177.97" y1="19.12" x2="188" y2="140.3" gradientUnits="userSpaceOnUse"><stop offset="0" stop-color="#166493"/><stop offset="0.24" stop-color="#1b7bb0"/><stop offset="0.55" stop-color="#2193cf"/><stop offset="0.82" stop-color="#24a2e1"/><stop offset="1" stop-color="#25a7e8"/></linearGradient><linearGradient id="Degradado_sin_nombre_28-2" x1="170.9" y1="19.7" x2="180.93" y2="140.89" xlink:href="#Degradado_sin_nombre_28"/><linearGradient id="linear-gradient" x1="225" y1="328.06" x2="225" y2="348.28" gradientTransform="translate(-44.46 -104.48) rotate(-32.03)" gradientUnits="userSpaceOnUse"><stop offset="0" stop-color="#f79828"/><stop offset="1" stop-color="#f0593a"/></linearGradient><linearGradient id="linear-gradient-2" x1="308.59" y1="-70.89" x2="308.59" y2="-50.67" gradientTransform="matrix(0.92, 0.39, -0.39, 0.92, -34.09, 85.15)" gradientUnits="userSpaceOnUse"><stop offset="0" stop-color="#51c0b1"/><stop offset="0.99" stop-color="#7acfe7"/></linearGradient><linearGradient id="linear-gradient-3" x1="109.8" y1="-87.81" x2="109.8" y2="-67.59" gradientTransform="matrix(1, -0.04, 0.04, 1, -46.13, 116.86)" xlink:href="#linear-gradient-2"/><linearGradient id="linear-gradient-4" x1="240.48" y1="-49.2" x2="240.48" y2="-28.98" gradientTransform="matrix(0.93, -0.36, 0.36, 0.93, -67.84, 225.39)" gradientUnits="userSpaceOnUse"><stop offset="0" stop-color="#f79828"/><stop offset="0.99" stop-color="#f17fb0"/></linearGradient><linearGradient id="linear-gradient-5" x1="301.99" y1="-84.14" x2="301.99" y2="-63.92" gradientTransform="translate(-67.71 52.86) rotate(12.95)" xlink:href="#linear-gradient-4"/><linearGradient id="linear-gradient-6" x1="179" y1="-16.63" x2="187.6" y2="-16.63" gradientTransform="translate(27.2 -6.81) rotate(36.09)" xlink:href="#linear-gradient-2"/><linearGradient id="linear-gradient-7" x1="169.55" y1="-3.25" x2="177.18" y2="-3.25" gradientTransform="translate(27.2 -6.81) rotate(36.09)" xlink:href="#linear-gradient-2"/><linearGradient id="linear-gradient-8" x1="572.49" y1="-13.66" x2="580.11" y2="-13.66" gradientTransform="matrix(-0.84, -0.55, -0.55, 0.84, 660.06, 429.24)" xlink:href="#linear-gradient-2"/><linearGradient id="linear-gradient-9" x1="158.1" y1="41.09" x2="165.41" y2="41.09" gradientTransform="matrix(0.98, 0.2, -0.2, 0.98, 29.52, -29.58)" xlink:href="#linear-gradient-2"/><linearGradient id="linear-gradient-10" x1="162.68" y1="43.38" x2="170.11" y2="43.38" gradientTransform="matrix(0.98, 0.2, -0.2, 0.98, 29.52, -29.58)" xlink:href="#linear-gradient-2"/><linearGradient id="linear-gradient-11" x1="171" y1="43.81" x2="176.82" y2="43.81" gradientTransform="matrix(0.98, 0.2, -0.2, 0.98, 29.52, -29.58)" xlink:href="#linear-gradient-2"/></defs><title>Recurso 4</title><g id="Capa_2" data-name="Capa 2"><g id="OBJECTS"><path class="cls-1" d="M194.44,226.53s-.09-7.48-.23-19.83l-.08,0Z"/><path class="cls-2" d="M339.51.35,190.88,0,1.34.35c0,7.33-2.25,7.21-.92,14.54,3.34,14.67,16.67,13.33,28,18,26.67,9.33,13.34,30.67,15.34,51.33,1.33,12.67,6.66,23.34,20,26.67,12.66,2.67,20,2.62,29.33,14.62,16.67,20-2,49.38,30.67,62.71,9.33,4,20.66,1.34,30.66,3.34,11.55,1.1,22.2,6.28,32.68,11.05v.78c1.16.6,2.35,1.14,3.55,1.64a22.81,22.81,0,0,0,3.49,1.64l.08,0c0-.11,0-.23,0-.35,16,5.18,33.51,1.34,40.89-16.46,6-15.5,16-26.5,34-21.5,8,2.5,13.5,5.5,22.5,1.5,9.5-4.5,14.5-15.5,16.5-25.5,2-10.5,2.5-22.5,13.5-28,6-2.5,15.52,1.42,18-6Z"/><path class="cls-3" d="M274,114.27,268,109.84l.91,7.23-4.43,5.9,7.22-.9,5.9,4.42-.89-7.22,4.42-5.9Z"/><path class="cls-4" d="M206,107.48l-7.1-2,3.44,6.41-2,7.1,6.42-3.44,7.09,2-3.43-6.42,2-7.09Z"/><path class="cls-5" d="M146,171.77l-5.14-3.86.78,6.29-3.85,5.15,6.29-.79,5.14,3.86-.78-6.3,3.85-5.14Z"/><path class="cls-3" d="M328.07,86.37l-5.14-3.86.79,6.3L319.86,94l6.29-.78L331.29,97l-.78-6.29,3.86-5.14Z"/><path class="cls-3" d="M68.49,7.88,66.72,1.7,63.55,7.19,57.37,9l5.49,3.18,1.76,6.18,3.18-5.49L74,11.06Z"/><path class="cls-6" d="M88.19,95.33l-3.32-5.5L83.23,96l-5.5,3.32,6.12,1.64,3.32,5.5,1.64-6.12L94.31,97Z"/><path class="cls-7" d="M320.61,62.07s-2.8-6.23-1.36-7.1,6.22,1.87,6.22,1.87,5.73-3.49,6.92-2.37-1,6.1-1,6.1,6.69,2.89,6.27,4.34-7.77,2-7.77,2-1.51,6.63-3.24,7.22c-1.06.36-3.23-6.48-3.23-6.48s-6.23,1.58-6.82.07S320.61,62.07,320.61,62.07Z"/><path class="cls-8" d="M271.53,145.06s3.5-5.87,5-5.19,2,6.17,2,6.17,6.14,2.7,5.9,4.31-5.57,2.68-5.57,2.68,1.48,7.14,0,7.63-6.1-5.21-6.1-5.21-6.3,2.57-7.78,1.49c-.9-.66,3.45-6.37,3.45-6.37s-4.85-4.19-4-5.54S271.53,145.06,271.53,145.06Z"/><path class="cls-9" d="M56.69,31.82S57.36,25,59,25s4.47,4.73,4.47,4.73,6.71-.18,7.18,1.38-3.9,4.8-3.9,4.8,4.37,5.83,3.28,6.89-7.74-2.12-7.74-2.12-4.61,5-6.41,4.65c-1.1-.21.42-7.23.42-7.23s-6.18-1.73-5.95-3.33S56.69,31.82,56.69,31.82Z"/><path class="cls-10" d="M137.25,99.88s-1.59-6.65,0-7.24,5.77,3,5.77,3,6.28-2.36,7.24-1-2.12,5.81-2.12,5.81,6,4.08,5.35,5.44-8,.53-8,.53-2.72,6.23-4.53,6.49c-1.11.16-2-7-2-7s-6.4.38-6.71-1.21S137.25,99.88,137.25,99.88Z"/><path class="cls-11" d="M240.21,44.23s2.42-6.38,4-6S247.34,44,247.34,44s6.52,1.58,6.56,3.21-5,3.61-5,3.61,2.7,6.77,1.37,7.51-6.91-4.07-6.91-4.07-5.76,3.62-7.4,2.82c-1-.49,2.29-6.87,2.29-6.87s-5.52-3.29-4.87-4.77S240.21,44.23,240.21,44.23Z"/><path class="cls-3" d="M166,127.37a3.91,3.91,0,1,1-4.48-3.24A3.92,3.92,0,0,1,166,127.37Z"/><path class="cls-3" d="M225.57,56.22A3.91,3.91,0,1,1,221.08,53,3.91,3.91,0,0,1,225.57,56.22Z"/><path class="cls-12" d="M46.37,18a3.91,3.91,0,1,1-4.49-3.24A3.92,3.92,0,0,1,46.37,18Z"/><path class="cls-13" d="M249,156.3A2.72,2.72,0,1,1,245.9,154,2.71,2.71,0,0,1,249,156.3Z"/><path class="cls-13" d="M270.86,47.57a2.72,2.72,0,1,1-3.12-2.25A2.73,2.73,0,0,1,270.86,47.57Z"/><path class="cls-14" d="M159.93,149.42a2.72,2.72,0,1,1-3.12-2.26A2.72,2.72,0,0,1,159.93,149.42Z"/><path class="cls-14" d="M214.4,41a2.72,2.72,0,1,1-3.12-2.26A2.71,2.71,0,0,1,214.4,41Z"/><path class="cls-15" d="M61.46,57.43a2.72,2.72,0,1,1-3.12-2.26A2.72,2.72,0,0,1,61.46,57.43Z"/><path class="cls-15" d="M19.94,9.58a2.72,2.72,0,1,1-3.11-2.26A2.72,2.72,0,0,1,19.94,9.58Z"/><path class="cls-16" d="M301.89,132a4.8,4.8,0,1,1-5.49-4A4.79,4.79,0,0,1,301.89,132Z"/><path class="cls-17" d="M243.63,123.79a2.44,2.44,0,1,1-3.33-.89A2.44,2.44,0,0,1,243.63,123.79Z"/><path class="cls-18" d="M238.42,121.25c-2.5,2.86-12.09,11.4-7.68,15.9,3.16,3.22,10-4.66,11.83-6.54a69.14,69.14,0,0,0,7.32-9.05c1.43-2.11,3.63-5,3.28-7.72-.26-2-2.95-1.29-4.13-.87-4.17,1.49-7.75,5-10.62,8.28-.35.4.28.93.63.53a36.32,36.32,0,0,1,7.84-6.8,11.42,11.42,0,0,1,3.9-1.66c2.8-.54,1.05,3.22.57,4.19-2.3,4.65-5.89,8.82-9.42,12.57-1.48,1.58-7.69,8.63-10.48,6.63s1.25-7.52,2.52-9.18c1.56-2,3.39-3.83,5.07-5.75C239.4,121.38,238.77,120.85,238.42,121.25Z"/><path class="cls-18" d="M243.44,120.61c-3.72-.76-15.88-4.88-17.61,1.18-1.24,4.33,9,6.41,11.52,7.06a69.72,69.72,0,0,0,11.49,1.89c2.54.2,6.17.67,8.34-1,1.61-1.21-.34-3.2-1.29-4-3.35-2.9-8.22-4.26-12.45-5.15a.41.41,0,0,0-.15.81,36.36,36.36,0,0,1,9.79,3.46,11.27,11.27,0,0,1,3.36,2.57c1.86,2.16-2.27,2.51-3.35,2.57-5.18.29-10.58-.76-15.59-2-2.11-.52-11.3-2.43-10.94-5.84s7.15-2.63,9.23-2.34c2.53.35,5,1,7.5,1.56A.41.41,0,0,0,243.44,120.61Z"/><path class="cls-18" d="M246.46,124.5c-1.29-3.57-4.12-16.1-10.19-14.41-4.35,1.2-.78,11,0,13.51a70,70,0,0,0,4.37,10.79c1.15,2.27,2.64,5.61,5.17,6.61,1.87.74,2.55-2,2.76-3.19.72-4.37-.66-9.23-2.1-13.31-.18-.5-1-.2-.77.3A36.79,36.79,0,0,1,247.85,135a11.51,11.51,0,0,1-.45,4.21c-.87,2.71-3.32-.63-3.94-1.53-3-4.26-4.87-9.42-6.44-14.32-.66-2.07-3.82-10.91-.72-12.38s6,4.72,6.81,6.65c1,2.35,1.71,4.82,2.58,7.22C245.87,125.3,246.63,125,246.46,124.5Z"/><path class="cls-19" d="M251.69,130.07a1.19,1.19,0,0,1-.44,1.62,1.18,1.18,0,1,1,.44-1.62Z"/><path class="cls-19" d="M235,136.41a1.19,1.19,0,0,1-2.05,1.19,1.19,1.19,0,0,1,.44-1.62A1.18,1.18,0,0,1,235,136.41Z"/><path class="cls-19" d="M235.81,112.93a1.18,1.18,0,1,1-2.05,1.18,1.18,1.18,0,0,1,2.05-1.18Z"/><path class="cls-20" d="M138.18,61.88a16.63,16.63,0,0,0,29.76,12.34l.23-.34C157.42,75.73,146.06,70.11,138.18,61.88Z"/><path class="cls-21" d="M164.16,51.2a16.48,16.48,0,0,0-23,3.49,16,16,0,0,0-2.93,7.19c7.88,8.23,19.24,13.85,30,12A16.5,16.5,0,0,0,164.16,51.2Z"/><path class="cls-18" d="M149.18,69.39a8.66,8.66,0,0,0-1.59-.72c.36-1,.75-1.89,1.16-2.81A46,46,0,0,0,153.32,68c5.09,2,11.29,3.73,16.74,2.25l.09-.24c-5.42,1.28-11.24-.26-16.32-2.21a41.18,41.18,0,0,1-4.91-2.26c.37-.8.76-1.58,1.16-2.35.18-.34.36-.68.55-1,2.84,1.74,6.43,1.71,9.65.91,3.65-.91,6.38-3.38,8.89-6l-.22-.41c-2.28,2.4-4.71,4.6-7.94,5.72s-7.18,1.19-10.14-.61a39.62,39.62,0,0,1,5.08-7,26.92,26.92,0,0,1,5.61-5.08l-.44-.21a32.29,32.29,0,0,0-4.19,3.72,36.08,36.08,0,0,0-6.37,8.36,8.65,8.65,0,0,1-1.25-1c-3.59-3.58-1.56-8,.55-11.88l-.49.14c-2.23,4.09-4.07,8.67-.09,12.37a8,8,0,0,0,1,.82l-.2.37c-.53,1-1,2-1.53,3a37.57,37.57,0,0,1-4-2.61,25.34,25.34,0,0,1-5.31-4.7l-.18.45a29.45,29.45,0,0,0,4.34,3.87,32.35,32.35,0,0,0,5,3.35c-.44.94-.84,1.91-1.2,2.89a8.29,8.29,0,0,0-7.86,2.27c.08.18.16.36.25.54a12.29,12.29,0,0,1,1.76-1.46,6.66,6.66,0,0,1,5.64-.75,20.54,20.54,0,0,0-1.24,9.13l.25.16a21.86,21.86,0,0,1,1.35-9.17,9.41,9.41,0,0,1,2.73,1.48c3,2.36,4.71,6.2,5.59,10.11l.64,0C155.37,76.23,153,71.68,149.18,69.39Z"/><path class="cls-22" d="M282,85.77c-.13-1.29-2.12-1.83-3.82-2.06a13,13,0,0,0,2.25,5.37C281.32,88.05,282.11,86.81,282,85.77Z"/><path class="cls-23" d="M272.73,86.64l2.88,4.58h2.63a17.74,17.74,0,0,0,2.19-2.13,13,13,0,0,1-2.25-5.37,19.37,19.37,0,0,0-2.41-.16Z"/><path class="cls-24" d="M243.14,95.94a16.76,16.76,0,0,0,1.65,4.83c.79,1.65,2,.85,2,.85l2.12-1-.6-1.88a29.8,29.8,0,0,0-5.11-3.6A2.59,2.59,0,0,0,243.14,95.94Z"/><path class="cls-25" d="M244.37,94a1.81,1.81,0,0,0-1.13,1.15,29.8,29.8,0,0,1,5.11,3.6l-1.79-5.64S245.24,93.66,244.37,94Z"/><path class="cls-26" d="M248.93,92.65a32.64,32.64,0,0,0,2.13,7,.94.94,0,0,1-.57,1.1c-.77.26-1.21.63-1.54-.13s-2.45-6.56-2.39-7.52C246.59,92.59,248.81,92,248.93,92.65Z"/><path class="cls-17" d="M275.71,84c.32-.38.06-.49.06-.49l-26.84,9.1a9.29,9.29,0,0,0,.26,1.62l25.28-8.62C274.29,85,275.4,84.41,275.71,84Z"/><path class="cls-15" d="M278.14,90.58c-.36-.41-1.77-.24-2.08-.81l-25.5,8.69c.29.74.5,1.23.5,1.23l27.18-8.48S278.52,91,278.14,90.58Z"/><path class="cls-27" d="M276,89.61c-.12-.77,1.28-1.82,1-2.7s-2.5-1.14-2.5-1.14a.56.56,0,0,1,0-.12l-25.28,8.62a35.58,35.58,0,0,0,1.37,4.19l25.5-8.69A.75.75,0,0,1,276,89.61Z"/><path class="cls-27" d="M122.08,96.79a51.51,51.51,0,0,0-6.85-6.38c-5-3.79-7.49-11.45-7.1-18.68a13,13,0,0,0-3.06,3.2c-3.66,5.32-2,11.58-1,16.79a20.06,20.06,0,0,1-.49,9.65l6.47,2.15,6.47,2.14a19.37,19.37,0,0,1,4.88-8.19Z"/><path class="cls-17" d="M115.23,90.41a51.51,51.51,0,0,1,6.85,6.38c3.57-3.49,7.74-7.52,7.67-13.68S126,72.3,120,70.31c-4.44-1.47-8.62-1-11.9,1.42C107.74,79,110.23,86.62,115.23,90.41Z"/><path class="cls-12" d="M106.59,102.87a42.75,42.75,0,0,0,3.19-11.29c.25-2.1.66-5.68-.78-7.58-1.58-2.09-3.71.57-3.36,2.36.61,3.06,3.81,3.45,6.41,2.85a9.14,9.14,0,0,0,6.19-6.11c.84-2.52-1.22-5.54-3.73-3.33-2.2,1.92-.49,6.55.84,8.67,1.5,2.41,4.71,3.91,7,1.77,1-.92,1.2-3.56-.58-4-2.58-.62-4.21,2.44-5.15,4.22-2.21,4.21-4,9.7-3.23,14.58.11.7,1.16.49,1.07-.19-.71-5.08,1.28-10.72,3.73-15a8.7,8.7,0,0,1,1.51-2c.72-.69,2.19-1.08,2.28.35.15,2.44-3.13,2.21-4.53,1.2a7.72,7.72,0,0,1-2.57-4.28,12.28,12.28,0,0,1-.44-2.61,4,4,0,0,1,.14-1.24c.28-1.2,2.2-2.48,2.91-.33.54,1.65-.77,3.49-1.69,4.68a7.31,7.31,0,0,1-3.9,2.71c-1.47.43-4.09.57-5-1a3.13,3.13,0,0,1-.28-2.37,1.14,1.14,0,0,1,1.71-.68,2.6,2.6,0,0,1,.51,1.12c.7,2.34.39,5.06.09,7.39a47.42,47.42,0,0,1-2.68,9.89c-.1.26.32.39.43.14Z"/><path class="cls-28" d="M106.4,102.16a24,24,0,0,1-2.71-1.21l-.82,2.71c-2.43,7.44.68,8.48.68,8.48a25,25,0,0,0,4.29,1.74A24.63,24.63,0,0,1,106.4,102.16Z"/><path class="cls-26" d="M116.62,105.24a78.94,78.94,0,0,1-10.22-3.08,24.63,24.63,0,0,0,1.44,11.72,22,22,0,0,0,3,.7C114.56,115.13,116.62,105.24,116.62,105.24Z"/><path class="cls-18" d="M103.74,103.46a53.88,53.88,0,0,0,11.62,3.65"/><path class="cls-18" d="M103.65,103.58a23.47,23.47,0,0,0,5.74,2.28c1.76.56,4.15,1.58,6,1.42.19,0,.16-.28,0-.34-1.85-.71-4-1-5.87-1.56a50.63,50.63,0,0,1-5.76-2.07c-.16-.07-.27.18-.13.27Z"/><path class="cls-18" d="M102.92,106.23a53.33,53.33,0,0,0,11.62,3.65"/><path class="cls-18" d="M102.84,106.35a23.67,23.67,0,0,0,5.73,2.29c1.76.56,4.15,1.57,6,1.41.19,0,.17-.28,0-.34-1.85-.7-4-1-5.87-1.56a49.42,49.42,0,0,1-5.76-2.07c-.17-.07-.27.18-.12.27Z"/><path class="cls-18" d="M102.65,108.94a50,50,0,0,0,10.69,3.43"/><path class="cls-18" d="M102.57,109.05a22.38,22.38,0,0,0,5.28,2.13c1.63.53,3.83,1.47,5.53,1.34.17,0,.15-.25,0-.3-1.7-.66-3.65-.93-5.4-1.48a47.81,47.81,0,0,1-5.29-1.93c-.16-.07-.25.15-.12.24Z"/><path class="cls-5" d="M313.55,106.36c-1.63-6.6-6.18-17.25-6.18-17.25l1.49-8.23s3.55.84,4.06-1c.46-1.61-1.83-2-1.83-2l-12-2.6c-1.87-.4-3.51-.81-3.91,1C294.72,78.53,299,79,299,79l-1.4,8.14-.56.63A91.24,91.24,0,0,0,313.55,106.36Z"/><path class="cls-25" d="M297.05,87.81c-2.46,2.81-12.3,14.08-13.3,16.07-1.14,2.28-.85,3.93,4.11,5l21,4.54s4.44,1,5.24-2.73a11.49,11.49,0,0,0-.51-4.33A91.24,91.24,0,0,1,297.05,87.81Z"/><path class="cls-29" d="M294.36,93.84s-6.29,7.44-6.85,8.51-2.32,3.72,1.84,4.73,20.31,4.44,20.31,4.44,3-.07,2-4.48A78.1,78.1,0,0,0,308,96.17S297.63,95.74,294.36,93.84Z"/><path class="cls-18" d="M297.75,99.61a1.17,1.17,0,1,1-1-1.31A1.17,1.17,0,0,1,297.75,99.61Z"/><path class="cls-18" d="M309.77,107.84a1.17,1.17,0,1,1-1-1.31A1.16,1.16,0,0,1,309.77,107.84Z"/><path class="cls-18" d="M305.14,99.87a.7.7,0,0,1-.8.61.72.72,0,0,1-.62-.8.72.72,0,0,1,1.42.19Z"/><path class="cls-18" d="M291.9,103.49a.71.71,0,0,1-.8.61.72.72,0,0,1-.62-.8.73.73,0,0,1,.81-.62A.72.72,0,0,1,291.9,103.49Z"/><path class="cls-18" d="M303.4,105.73a1.64,1.64,0,1,1-1.41-1.84A1.64,1.64,0,0,1,303.4,105.73Z"/><path class="cls-30" d="M119.58,125.07c-6.09,5.45-18.85,28.46-5,37.71s32.06-9.49,34.11-17.8-2.77-10.53-5.43-8.89-3.58,0-3.58-.94c0-2.93,3.13-7.15-1.09-12S125.67,119.61,119.58,125.07Zm17.54,15.44c-1.73,2.07-4.27,2.8-5.67,1.63s-1.14-3.79.59-5.86,4.26-2.8,5.67-1.64S138.84,138.44,137.12,140.51Z"/><path class="cls-13" d="M118.5,125.17c-6.1,5.45-18.86,28.46-5,37.71a14.82,14.82,0,0,0,5.1,2.18,91.67,91.67,0,0,0,15.19-22.69,3.18,3.18,0,0,1-3.43-.13c-1.41-1.16-1.14-3.79.58-5.86s4.27-2.81,5.67-1.64a2.69,2.69,0,0,1,.33.35c1-2.5,1.86-5,2.67-7.62a8.44,8.44,0,0,0-2.1-4.17C133.3,118.5,124.58,119.71,118.5,125.17Z"/><path class="cls-31" d="M136,140.61a6.62,6.62,0,0,1-2.23,1.76,91.67,91.67,0,0,1-15.19,22.69c12.87,2.75,27.2-12.66,29-20,2-8.31-2.78-10.53-5.43-8.89s-3.59,0-3.59-.94c0-2.05,1.53-4.72,1-7.78-.81,2.58-1.69,5.12-2.67,7.62C138,136.38,137.6,138.72,136,140.61Z"/><path class="cls-25" d="M129.5,123.68a4,4,0,0,0-4.45,1.84c-1.78,2.88.47,4.88,2.93,5.29A10,10,0,0,1,129.5,123.68Z"/><path class="cls-24" d="M131.66,129.87c2.35-2.51,1.2-4,.37-4.85a5.15,5.15,0,0,0-2.53-1.34,10,10,0,0,0-1.52,7.13A4.14,4.14,0,0,0,131.66,129.87Z"/><path class="cls-32" d="M118.64,131.25A3.92,3.92,0,0,0,115,134.4c-.78,3.3,2,4.48,4.45,4.09A10,10,0,0,1,118.64,131.25Z"/><path class="cls-12" d="M122.65,136.43c1.43-3.13-.12-4.14-1.19-4.72a5.11,5.11,0,0,0-2.82-.46,10,10,0,0,0,.82,7.24A4.18,4.18,0,0,0,122.65,136.43Z"/><path class="cls-33" d="M112.69,144.11a3.91,3.91,0,0,0-1.69,4.5c.88,3.27,3.88,3,5.86,1.48A10,10,0,0,1,112.69,144.11Z"/><path class="cls-4" d="M118.68,146.76c-.22-3.43-2.07-3.59-3.29-3.59a5.17,5.17,0,0,0-2.7.94,10,10,0,0,0,4.17,6A4.15,4.15,0,0,0,118.68,146.76Z"/><path class="cls-27" d="M116.42,154.79a3.94,3.94,0,0,0-.88,4.73c1.45,3.06,4.35,2.26,6,.42A10,10,0,0,1,116.42,154.79Z"/><path class="cls-17" d="M122.78,156.35c-.82-3.34-2.66-3.17-3.86-3a5.19,5.19,0,0,0-2.5,1.4,10,10,0,0,0,5.15,5.15A4.09,4.09,0,0,0,122.78,156.35Z"/><path class="cls-34" d="M134.86,146.26c-4.85,3.24-10.9,8.2-10.74,12.65,0,1.2,1.16.91,2.21.72a8.89,8.89,0,0,0,2.67-1.11A38,38,0,0,1,134.86,146.26Z"/><path class="cls-35" d="M143,145.08l-2.28-2.37s-2.68,1.4-5.88,3.55A38,38,0,0,0,129,158.52C134.56,155.36,143.24,146.71,143,145.08Z"/><path class="cls-36" d="M144.57,143.45a8.81,8.81,0,0,0,5-3.24,7.27,7.27,0,0,0,1.16-3.75,7.79,7.79,0,0,1-1.64,3.54,6.69,6.69,0,0,1-2,1.59,7.3,7.3,0,0,0-2.81,1.7.06.06,0,0,1-.1-.08c.93-1.33,2.68-1.42,3.84-2.49a7,7,0,0,0,2.31-3.68c.07-.34.15-.66.24-1a7.84,7.84,0,0,0-.88,1.3,5.07,5.07,0,0,1-1.34,1.77c-1.63,1.3-3.53,1.79-4.94,3.42a.06.06,0,0,1-.09-.07c1-1.44,2.34-1.94,3.8-2.8a6.9,6.9,0,0,0,2.63-3.07,2.39,2.39,0,0,1,.13-.21c-2.29,1.94-5.58,2.57-6.81,5.79,0,0-.06,0-.06,0,1-3.92,5.67-4.19,7.77-7.1h0c-2.24,2.79-8.05,1.25-8.09,6.18,0,.05-.06.06-.09,0a3.65,3.65,0,0,0,1.89,2.21S144.54,143.46,144.57,143.45Z"/><path class="cls-36" d="M150.53,135l-.05,0c-1.72,1.28-2.22-.12-5.21,1.47a4.87,4.87,0,0,0-2.56,3.35C143.57,136.71,148.49,137.06,150.53,135Z"/><path class="cls-36" d="M145,143.54c5-.23,6.59-6.55,6.1-8.2l-.15.42C151.16,139.58,148.63,142.43,145,143.54Z"/><path class="cls-37" d="M150.87,135.15v0c-2.14,2.88-6.82,3.09-7.87,7,0,0,0,.06.06,0,1.28-3.2,4.58-3.79,6.89-5.69A6.94,6.94,0,0,0,150.87,135.15Z"/><path class="cls-37" d="M150,136.44l-.14.21a6.87,6.87,0,0,1-2.66,3c-1.47.84-2.82,1.32-3.85,2.74a.06.06,0,0,0,.09.07c1.44-1.6,3.35-2.07,5-3.34a4.94,4.94,0,0,0,1.36-1.75,9.22,9.22,0,0,1,.9-1.3l.15-.48A7.22,7.22,0,0,1,150,136.44Z"/><path class="cls-37" d="M150.86,135.45c0-.1,0-.2,0-.3a6.94,6.94,0,0,1-.92,1.29,7.22,7.22,0,0,0,.84-.82C150.81,135.56,150.84,135.51,150.86,135.45Z"/><path class="cls-37" d="M151,135.11v0a0,0,0,0,0,0,0l0,0L151,135l0,.06A0,0,0,0,1,151,135.11Z"/><path class="cls-37" d="M150.64,136.1c-.09.32-.17.65-.25,1a7,7,0,0,1-2.36,3.65c-1.17,1.05-2.93,1.11-3.88,2.44-.05.07,0,.14.11.08a7.17,7.17,0,0,1,2.83-1.66,6.67,6.67,0,0,0,2-1.57,7.8,7.8,0,0,0,1.69-3.51c0-.23,0-.46.05-.69A2.83,2.83,0,0,1,150.64,136.1Z"/><path class="cls-37" d="M151,135.56a2.11,2.11,0,0,1,0,.25l.15-.42a.56.56,0,0,0,0-.12A1.85,1.85,0,0,1,151,135.56Z"/><path class="cls-37" d="M150.85,135.55l-.06.07-.15.48a2.83,2.83,0,0,0,.2-.28A2.44,2.44,0,0,0,150.85,135.55Z"/><path class="cls-37" d="M151,135.56a1.85,1.85,0,0,0,.13-.29s0,0,0-.05l-.12.16C151,135.44,151,135.5,151,135.56Z"/><path class="cls-37" d="M150.79,135.62l.06-.07v-.1C150.84,135.51,150.81,135.56,150.79,135.62Z"/><path class="cls-37" d="M151,135.12a0,0,0,0,1,0,0c0,.08,0,.16,0,.23l.12-.16a.39.39,0,0,0-.1-.14Z"/><path class="cls-37" d="M142.71,139.8a4,4,0,0,0-.14,1.38,0,0,0,0,0,0,0,.24.24,0,0,1,0-.08A4.77,4.77,0,0,1,142.71,139.8Z"/><path class="cls-37" d="M142.69,141.18c.11-4.92,5.9-3.3,8.18-6.06h0a0,0,0,0,1,0,0s0,0,0,0l0,0a.37.37,0,0,0-.34.06c-2.07,2-7,1.58-7.88,4.72a4.77,4.77,0,0,0-.13,1.35.24.24,0,0,0,0,.08A.06.06,0,0,0,142.69,141.18Z"/><path class="cls-37" d="M150.93,135h0s0,0,0,0,0,0,0,0A.09.09,0,0,0,150.93,135Z"/><path class="cls-37" d="M150.94,135h0l0,0s0,0,0,0h0Z"/><path class="cls-37" d="M145,143.5c3.63-1.05,6.2-3.87,6.06-7.69-.08.24-.16.47-.23.7a7.31,7.31,0,0,1-1.22,3.74,8.82,8.82,0,0,1-5.06,3.16.09.09,0,0,0-.06.06l.11,0Z"/><path class="cls-37" d="M150.89,135.09l0,0h0l0,0Z"/><path class="cls-37" d="M150.89,135.09l0,0v0A.14.14,0,0,0,150.89,135.09Z"/><polygon class="cls-37" points="150.9 135.09 150.89 135.09 150.9 135.09 150.9 135.09"/><path class="cls-37" d="M151,135.11a0,0,0,0,0-.06,0h0a.14.14,0,0,1,0,.06c0,.1,0,.2,0,.3l.11-.3Z"/><path class="cls-37" d="M150.84,135.82c0,.23,0,.46-.05.69.07-.23.15-.46.23-.7a2.11,2.11,0,0,0,0-.25Z"/><path class="cls-37" d="M150.85,135.55a2.44,2.44,0,0,1,0,.27l.16-.26c0-.06,0-.12,0-.18S150.9,135.5,150.85,135.55Z"/><path class="cls-37" d="M151,135.15l-.11.3v.1c.05-.05.09-.11.14-.17S151,135.23,151,135.15Z"/><path class="cls-37" d="M150.9,135.08a0,0,0,0,0,0,0h0l0,0Z"/><path class="cls-37" d="M150.9,135.09h0Z"/><path class="cls-37" d="M150.91,135.08h0Z"/><path class="cls-25" d="M140.74,142.71c.31,1.67,2.28,2.37,2.28,2.37l.12-.06a7.14,7.14,0,0,1-.34-3.8C141.54,140.76,140.74,142.71,140.74,142.71Z"/><path class="cls-24" d="M143.18,141.42a1.27,1.27,0,0,0-.38-.2,7.14,7.14,0,0,0,.34,3.8C145.41,143.75,144.64,142.47,143.18,141.42Z"/><path class="cls-38" d="M55.38,70.58s35.44-7.8,38.1-8.32c2.4-.47,2.94-.13,3.28.61-6.07,2.38-12.45,3.3-19.3,4.19-7.7,1.28-14.65,3-22.55,3.69A1.85,1.85,0,0,1,55.38,70.58Z"/><path class="cls-39" d="M62.83,75.54S76.1,72.62,77.1,72.43s1.13,0,1.27.32l-12,10.86c-.24.41-.4.71-.51.94-.56.23-.69-.41-.69-.41s-2.43-7.14-2.72-8C62.25,75.67,62.83,75.54,62.83,75.54Z"/><path class="cls-35" d="M54.3,72.27c.78,2.21,7.27,21.28,7.27,21.28s.45,2.24,2.57.66c.42-.32,30.54-27.85,30.54-27.85s2.56-2.32,2.2-3.24l-.12-.25c-6.07,2.38-12.45,3.3-19.3,4.19-7.7,1.28-14.65,3-22.55,3.69A1.15,1.15,0,0,0,54.3,72.27Zm8.53,3.27S76.1,72.62,77.1,72.43s1.13,0,1.27.32c0,0,.82.09-2.69,3.48s-9,8.68-9.48,8.82-.74.31-.36-.5c-.56.23-.69-.41-.69-.41s-2.43-7.14-2.72-8C62.25,75.67,62.83,75.54,62.83,75.54Z"/><path class="cls-38" d="M77.54,74s1-.87.83-1.21c0,0,.82.09-2.69,3.48s-9,8.68-9.48,8.82-.74.31-.36-.5a1.58,1.58,0,0,0,.27-.16C66.27,84.27,77.54,74,77.54,74Z"/><path class="cls-40" d="M93.36,64.05c-.09-.37-.17-.75-.25-1.12a3.59,3.59,0,0,0-.11-.57c0-.07.11-.1.11,0a2.55,2.55,0,0,0,.11.55A7.21,7.21,0,0,1,93.41,64s0,.06,0,0Z"/><path class="cls-40" d="M89.19,65.07c-.09-.37-.17-.74-.25-1.11a2.74,2.74,0,0,0-.11-.57c0-.08.11-.11.12,0a2.13,2.13,0,0,0,.1.56,8.62,8.62,0,0,1,.2,1.13s0,0-.06,0Z"/><path class="cls-40" d="M85.08,65.91c-.09-.37-.17-.74-.25-1.12a2.77,2.77,0,0,0-.11-.56c0-.08.11-.11.11,0a2.55,2.55,0,0,0,.11.55,8.62,8.62,0,0,1,.2,1.13s0,.06-.06,0Z"/><path class="cls-40" d="M80.92,66.85c-.08-.37-.17-.74-.24-1.12a3.73,3.73,0,0,0-.12-.56c0-.08.12-.11.12,0a2.05,2.05,0,0,0,.1.55,8.62,8.62,0,0,1,.2,1.13s0,.06-.06,0Z"/><path class="cls-40" d="M77.49,67.57c-.09-.37-.17-.74-.25-1.12a3.47,3.47,0,0,0-.11-.56c0-.08.11-.11.11,0a2.55,2.55,0,0,0,.11.55,8.62,8.62,0,0,1,.2,1.13s0,.06-.06,0Z"/><path class="cls-40" d="M74.24,68.26c-.09-.37-.17-.74-.25-1.12a2.77,2.77,0,0,0-.11-.56c0-.08.11-.11.12,0a2.05,2.05,0,0,0,.1.55,8.62,8.62,0,0,1,.2,1.13s0,.06-.06,0Z"/><path class="cls-40" d="M71.16,69c-.09-.37-.17-.75-.24-1.12a4.15,4.15,0,0,0-.12-.57c0-.07.11-.1.12,0a2.05,2.05,0,0,0,.1.55,8.62,8.62,0,0,1,.2,1.13s0,.06-.06,0Z"/><path class="cls-40" d="M68,69.71c-.09-.37-.17-.74-.25-1.11a3.59,3.59,0,0,0-.11-.57c0-.08.11-.11.11,0a2.64,2.64,0,0,0,.11.56A8.34,8.34,0,0,1,68,69.7s0,0-.06,0Z"/><path class="cls-40" d="M65.24,70.16,65,69a3.27,3.27,0,0,0-.11-.56c0-.08.11-.11.11,0a1.74,1.74,0,0,0,.11.55,10.66,10.66,0,0,1,.19,1.13s0,.06-.06,0Z"/><path class="cls-40" d="M62.38,70.88c-.09-.37-.17-.74-.25-1.12A3.69,3.69,0,0,0,62,69.2c0-.08.11-.11.11,0a2.55,2.55,0,0,0,.11.55c.1.36.13.76.2,1.13,0,0-.06.06-.06,0Z"/><path class="cls-40" d="M59.17,71.52c-.09-.37-.17-.74-.25-1.11a2.74,2.74,0,0,0-.11-.57c0-.08.11-.1.12,0a2.13,2.13,0,0,0,.1.56,8.62,8.62,0,0,1,.2,1.13s0,0-.06,0Z"/><path class="cls-5" d="M229.49,91.38c-.5-4.51-2.17-18-4.07-17.76-3.41.49-13.25,2.74-13,4.47.16,1.14,1.78,9,2.56,12.78a2.84,2.84,0,0,0-1.42-.17,3.55,3.55,0,1,0,3.56,3,4.07,4.07,0,0,0-.26-.94c.08-3.41-1.3-9.93-1.3-9.93s8.59-3.16,10-2.89l1.59,9a2.85,2.85,0,0,0-1.13-.08,3.55,3.55,0,0,0,1,7,3.19,3.19,0,0,0,2.59-3h0a4.22,4.22,0,0,0,0-.87A3.75,3.75,0,0,0,229.49,91.38Z"/><path class="cls-12" d="M333.35,32.24C332,27.9,328,14.9,326.14,15.51c-3.27,1.09-12.54,5.09-12,6.74.37,1.09,3.38,8.53,4.83,12.11a2.86,2.86,0,0,0-1.42.08,3.32,3.32,0,0,0-1.81,4.32,3.11,3.11,0,1,0,5.85-2,3.58,3.58,0,0,0-.42-.88c-.54-3.37-3.07-9.54-3.07-9.54s7.87-4.65,9.35-4.65l3.19,8.57a2.87,2.87,0,0,0-1.12.13,3.33,3.33,0,0,0-1.81,4.32,3.32,3.32,0,0,0,4,2.35,3.19,3.19,0,0,0,2-3.47h0a4.2,4.2,0,0,0-.18-.84A3.35,3.35,0,0,0,333.35,32.24Z"/><path class="cls-41" d="M297.29,50.73S302,37.66,301,36.42s-6.38,16.12-5,15.22,2.38-1.48,2.38-1.48"/><path class="cls-41" d="M297.39,48s2-12-4.5-13.08C290.91,38.84,294.82,47.62,297.39,48Z"/><path class="cls-20" d="M286.12,47.13c-3.2,3.25-3.69,8.84-2.61,13.4,1.26,5.28,5.5,4.84,7.73,2.61,0,2.71,2.2,5.62,5.75,4.57A26.7,26.7,0,0,1,286.12,47.13Z"/><path class="cls-21" d="M298.84,66.87c4.62-2.85,8.74-8.19,7.36-13.53s-9.92-3.3-9.92-3.3-3.66-7.09-8.42-4.28a8.35,8.35,0,0,0-1.74,1.37A26.7,26.7,0,0,0,297,67.71,7.63,7.63,0,0,0,298.84,66.87Z"/><path class="cls-18" d="M299.9,51.4s3.27-.63,4.48,1.41a5.66,5.66,0,0,1-.23,5.69c-.8,1.22-.46-3.14-1-4.19S297.64,52.9,299.9,51.4Z"/><path class="cls-25" d="M129,33.32a23.1,23.1,0,0,0-46-4.64A22.05,22.05,0,0,0,82.86,31l2,.2c0-.69,0-1.4.11-2.11a21.17,21.17,0,0,1,42.12,4.25,22.23,22.23,0,0,1-.6,3.31l1.82.19A23.45,23.45,0,0,0,129,33.32Z"/><path class="cls-14" d="M108.17,10.12A21.17,21.17,0,0,0,85,29.05c-.07.71-.11,1.42-.11,2.11l2.1.21a17.52,17.52,0,0,1,.09-2.28,19,19,0,1,1,37.11,7.29l2.33.23a22.23,22.23,0,0,0,.6-3.31A21.17,21.17,0,0,0,108.17,10.12Z"/><path class="cls-15" d="M88.67,29.43a17.47,17.47,0,0,1,34.76,3.5,17.7,17.7,0,0,1-.66,3.3l1.41.15a19,19,0,1,0-37.11-7.29A17.52,17.52,0,0,0,87,31.37l1.61.17A16.54,16.54,0,0,1,88.67,29.43Z"/><path class="cls-16" d="M107.8,13.8A17.47,17.47,0,0,0,88.67,29.43a16.54,16.54,0,0,0-.08,2.11l1.78.18a15.88,15.88,0,0,1,.07-2.28,15.6,15.6,0,1,1,31.05,3.13,15.78,15.78,0,0,1-.75,3.46l2,.2a17.7,17.7,0,0,0,.66-3.3A17.47,17.47,0,0,0,107.8,13.8Z"/><path class="cls-4" d="M92,29.76a14.14,14.14,0,1,1,27.41,6.13l1.35.14a15.78,15.78,0,0,0,.75-3.46,15.6,15.6,0,1,0-31-3.13,15.88,15.88,0,0,0-.07,2.28l1.55.15A13.6,13.6,0,0,1,92,29.76Z"/><path class="cls-42" d="M107.47,17.11A14.14,14.14,0,0,0,92,29.76a13.6,13.6,0,0,0-.06,2.11L93.5,32a12.43,12.43,0,0,1,0-2.11,12.57,12.57,0,0,1,25,2.52,12.27,12.27,0,0,1-.79,3.29l1.62.16a14.16,14.16,0,0,0-11.92-18.78Z"/><path class="cls-3" d="M95.11,29.91a10.91,10.91,0,1,1,20.77,5.63l1.89.19a12.27,12.27,0,0,0,.79-3.29,12.57,12.57,0,0,0-25-2.52,12.43,12.43,0,0,0,0,2.11l1.62.17A11,11,0,0,1,95.11,29.91Z"/><path class="cls-43" d="M95.34,31.76s2-8.9-2.1-9-4,6.84-4,6.84,1.49-6.66-3-6.1c-3,.64-2.46,6.1-2.46,6.1s-.16-4.64-2.45-4c-3.09.87-1.22,5.34-3.15,6.79L94.41,34S95,33.61,95.34,31.76Z"/><path class="cls-43" d="M131.67,43.07l-15.15-1.53S113,32,118.92,31c0,0,4-.18,3.86,5.18,0,0-.25-4.46,2.82-4.15,3.52.36,2,6.5,2,6.5s.07-4.06,2.72-3.67S130.38,40.83,131.67,43.07Z"/><text class="cls-44" transform="translate(243.57 82.5) rotate(-16.47)">1+1=2</text><text class="cls-45" transform="matrix(0.98, 0.2, -0.2, 0.98, 77.56, 51.5)">5x2=10</text><path class="cls-21" d="M195.06,83.72c1.48-3.74,1.65-7-.8-8.65-3-2.1-6.45-.92-9.76,1.76A32.2,32.2,0,0,0,195.06,83.72Z"/><path class="cls-21" d="M169.42,98.12s-7.8,5.36-7.06,9.08,4.5,1.1,4.5,1.1-5.91,5.58-2.65,8.46,6.35-3.42,6.35-3.42-.09,1.17,1.82,2.56c3.39,2.47,7.11-10.44,7.11-10.44Z"/><path class="cls-27" d="M171.08,99.33s-5.35,3.68-4.84,6.24,3.08.75,3.08.75-4.06,3.83-1.82,5.81,4.36-2.35,4.36-2.35-.06.8,1.26,1.76c2.32,1.7,4.87-7.17,4.87-7.17Z"/><path class="cls-18" d="M184.5,76.83c-6.06,4.92-11.75,14.93-14,19.23a73.25,73.25,0,0,0,19.8-3.8,45.52,45.52,0,0,0,4.79-8.54A32.2,32.2,0,0,1,184.5,76.83Z"/><path class="cls-46" d="M169.42,98.12c2.83,5.77,10.07,7.34,10.07,7.34a105.8,105.8,0,0,0,10.78-13.2,73.25,73.25,0,0,1-19.8,3.8C169.8,97.34,169.42,98.12,169.42,98.12Z"/><path class="cls-47" d="M189.61,90.54c-1.5,2.06-4.85,3-7.14,1.38s-3.51-4.73-1.61-7.32a5.08,5.08,0,0,1,7-1.06C190.13,85.21,191.11,88.48,189.61,90.54Z"/><path class="cls-48" d="M187.34,84.32a4.1,4.1,0,0,0-3.72-.55,4,4,0,0,0-2,1.41c-1.54,2.11-.55,4.6,1.31,6a4.22,4.22,0,0,0,5-.31,3.93,3.93,0,0,0,.81-.82C190,88.34,189.2,85.68,187.34,84.32Z"/><path class="cls-47" d="M174.29,88.57s-8-.82-9.77,3.62-1.78,5.17-1,6.14c1,1.27,6.79-1.38,6.79-1.38Z"/><path class="cls-49" d="M175.09,88.15s-8-.82-9.76,3.62-2,5.39-1,6.14c1.25,1,6.79-1.38,6.79-1.38Z"/><path class="cls-47" d="M186.35,97.5s3.64,7.22.11,10.42-4.2,3.5-5.39,3.12c-1.55-.51-1.13-6.83-1.13-6.83Z"/><path class="cls-50" d="M186.45,96.6s3.64,7.22.11,10.41-4.33,3.78-5.39,3.13c-1.34-.83-1.13-6.84-1.13-6.84Z"/><path class="cls-27" d="M199.31,57.16c-1.26-.94-2.62-1.89-4.1-2.84l-3.3,2.42s4.85,7,9.32,10.72A41,41,0,0,0,199.31,57.16Z"/><path class="cls-15" d="M199.31,57.16a41,41,0,0,1,1.92,10.3c2.35,2,4.6,3,6,1.71C209.44,67,206,62.2,199.31,57.16Z"/><path class="cls-25" d="M192.64,58.09a6,6,0,0,0,3.73-3.1,1,1,0,0,1-.08-.14,12.1,12.1,0,0,1-5.61.6C189.88,57.13,192.64,58.09,192.64,58.09Z"/><path class="cls-24" d="M191,54.94a2.65,2.65,0,0,0-.34.51,12.1,12.1,0,0,0,5.61-.6C194.69,51.93,192.72,53,191,54.94Z"/><path class="cls-47" d="M193.47,54.38c-4.16,3.81-11.86,4.49-16.09-.14s-5.52-11.8-.28-16.59a11.25,11.25,0,0,1,15.62.79C197,43.06,197.63,50.58,193.47,54.38Z"/><path class="cls-18" d="M191.28,39.9a9.05,9.05,0,0,0-7.83-2.83,8.77,8.77,0,0,0-4.88,2.19c-4.27,3.89-3.22,9.74.23,13.5,2.81,3.08,7.51,3.26,11,1.54a9,9,0,0,0,2.11-1.43C195.28,49.78,194.72,43.66,191.28,39.9Z"/><path class="cls-51" d="M183.45,37.07a8.77,8.77,0,0,0-4.88,2.19A8.52,8.52,0,0,0,176.48,49c2.68-4,5.42-8,8.3-12A9.87,9.87,0,0,0,183.45,37.07Z"/><path class="cls-52" d="M186.91,37.31c-2.92,5.12-5.68,10.19-8.11,15.45a8.07,8.07,0,0,0,4.7,2.49c1.86-5.67,3.89-11.3,5.81-17A9,9,0,0,0,186.91,37.31Z"/><path class="cls-53" d="M191.17,39.79a8.76,8.76,0,0,0-1.86-1.49c-1.92,5.65-3.95,11.28-5.81,17a10.07,10.07,0,0,0,3.42,0C187.47,49.81,189.78,45,191.17,39.79Z"/><path class="cls-54" d="M191.28,39.9a1.14,1.14,0,0,0-.11-.11c-1.39,5.23-3.7,10-4.25,15.43a10.4,10.4,0,0,0,2.86-.92,9,9,0,0,0,2.11-1.43C195.28,49.78,194.72,43.66,191.28,39.9Z"/><path class="cls-53" d="M184.78,37c-2.88,4-5.62,8-8.3,12a11.84,11.84,0,0,0,2.32,3.73h0c2.43-5.26,5.19-10.33,8.11-15.45A9.6,9.6,0,0,0,184.78,37Z"/><ellipse class="cls-55" cx="198.09" cy="279.11" rx="102.75" ry="15.93"/><path class="cls-56" d="M272.11,274.16c-1.74,3.41,0,7.74,0,7.74l13.74-4.15a3.29,3.29,0,0,1-.41-.71,65.26,65.26,0,0,1-12-3.26Z"/><path class="cls-18" d="M285.54,270.38l-12.1,3.4a65.26,65.26,0,0,0,12,3.26C284.42,274.63,285.54,270.38,285.54,270.38Z"/><path class="cls-17" d="M240.21,271.29l-4-.18c-3.52,5.11-.46,10.36-.46,10.36l4.61.21A13.88,13.88,0,0,1,240.21,271.29Z"/><path class="cls-14" d="M243.87,271.45l-3.66-.16a13.88,13.88,0,0,0,.2,10.39l3.76.16A20,20,0,0,1,243.87,271.45Z"/><path class="cls-17" d="M260,272.15l-16.12-.7a20,20,0,0,0,.3,10.39l16.17.71A19.68,19.68,0,0,1,260,272.15Z"/><path class="cls-14" d="M264.42,272.35l-4.43-.2a19.68,19.68,0,0,0,.35,10.4l5,.22A24.63,24.63,0,0,1,264.42,272.35Z"/><path class="cls-17" d="M287.07,277.39l-14.95,4.51c-.85-3.91-.48-6.37,0-7.74h0L286.78,270a1.49,1.49,0,0,0,.06-1.39l-14,4.06-8.43-.36a24.63,24.63,0,0,0,.87,10.42l7.11.31h0L287,278.76A1.47,1.47,0,0,0,287.07,277.39Z"/><polygon class="cls-29" points="236.26 271.11 254 267.21 286.84 268.65 272.85 272.71 236.26 271.11"/><path class="cls-24" d="M253.21,277.79l1.9-2.57-3.13.42-2.57-1.89.42,3.12-1.89,2.57,3.12-.42,2.57,1.89Z"/><path class="cls-56" d="M128.34,272.22c1.87,3.34.3,7.74.3,7.74l-13.9-3.61a2.74,2.74,0,0,0,.38-.72A65.14,65.14,0,0,0,127,271.9Z"/><path class="cls-18" d="M114.77,269,127,271.9a65.14,65.14,0,0,1-11.87,3.73C116.06,273.18,114.77,269,114.77,269Z"/><path class="cls-12" d="M160.1,268.09l3.94-.33c3.72,5,.87,10.33.87,10.33l-4.59.39A13.89,13.89,0,0,0,160.1,268.09Z"/><path class="cls-41" d="M156.45,268.39l3.65-.3a13.89,13.89,0,0,1,.22,10.39l-3.76.31A20,20,0,0,0,156.45,268.39Z"/><path class="cls-12" d="M140.37,269.74l16.08-1.35a20,20,0,0,1,.11,10.4l-16.13,1.35A19.64,19.64,0,0,0,140.37,269.74Z"/><path class="cls-41" d="M136,270.1l4.42-.36a19.64,19.64,0,0,1,.06,10.4l-4.93.41A24.71,24.71,0,0,0,136,270.1Z"/><path class="cls-12" d="M113.52,276,128.64,280c.93-5.33,1.08-4.16-.3-7.74h0l-14.82-3.54a1.49,1.49,0,0,1-.12-1.38l14.14,3.51,8.41-.71a24.71,24.71,0,0,1-.45,10.45l-7.1.59h0l-14.78-3.74A1.46,1.46,0,0,1,113.52,276Z"/><polygon class="cls-42" points="164.04 267.76 146.16 264.56 113.4 267.3 127.54 270.81 164.04 267.76"/><path class="cls-47" d="M147.07,278.24l2.5-2,3.13.29-2-2.49.3-3.14-2.5,2-3.14-.29,2,2.49Z"/><path class="cls-33" d="M218.51,250.91S203,259.5,182,250.59l-7.18-2.84s-12.76,19.31,7.54,25.94,43.51-.41,46.42-4.57S228.09,251.26,218.51,250.91Z"/><path class="cls-57" d="M204.49,260.15l-18,11.77,6.06,12.61,26-12.16,6.24-3.25a74.41,74.41,0,0,1-18.84-10Z"/><path class="cls-4" d="M229.82,249.3c-3.35-3.53-8.52-.22-8.52-.22L206,259.14a74.41,74.41,0,0,0,18.84,10l5.07-2.63S240.13,260.14,229.82,249.3Z"/><path class="cls-47" d="M185.82,272.19c2.32,17.5,11.86,9.13,7,12.73,0,0-21.15,4-25.32-5.91C163.77,270.23,185.82,272.19,185.82,272.19Z"/><path class="cls-46" d="M180.11,284.84a49.46,49.46,0,0,0,13.14-.64C190,280.4,187,271.61,187,271.61a54.4,54.4,0,0,0-12.6.43A20.85,20.85,0,0,1,180.11,284.84Z"/><path class="cls-47" d="M186.06,276.58c2.05.82,4.56,1.85,6.74,1.05.95-.34,1.19-1.43.18-1.81a5.2,5.2,0,0,0-2.35.09,20.06,20.06,0,0,0-4.44,1.51c-.17-.36-.32-.71-.48-1.07,1.42-.59,2.83-1.15,4.2-1.84.5-.25,5.59-3.5,2.88-3.87-1.39-.18-3.09,2.27-3.81,3.16-.89,1.11-1.69,2.29-2.48,3.49-.48.75-1.6-.07-1.11-.8,1.29-1.92,5.56-8.94,8.57-6.56,3.8,3-6.17,6.79-7.77,7.49a.59.59,0,0,1-.48-1.07c2.2-1,4.67-1.88,7.11-1.65,1,.1,2.45,1,2.15,2.18-1,4-7.09,1.61-9.21.27-.32-.2,0-.7.3-.57Z"/><path class="cls-47" d="M174.41,272c-4.15.81-7.35,2.59-5.75,6.38,1.78,4.24,6.57,5.91,11.45,6.42A20.85,20.85,0,0,0,174.41,272Z"/><path class="cls-47" d="M182.4,272.74c2,3.33,4.16,6.2,4.71,10.14,0,.25.45.23.44,0-.17-3.9-2.8-7.13-4.88-10.24-.11-.16-.37,0-.27.13Z"/><path class="cls-47" d="M179.23,273.06c2,3.33,4.15,6.2,4.7,10.14,0,.24.46.22.45,0-.17-3.9-2.8-7.13-4.89-10.25-.1-.15-.36,0-.26.14Z"/><path class="cls-57" d="M169.86,266.49l12.95,5.29,26,12.16,4.47-9.29c-16.87-.45-34.64-6.65-47.75-17.84C164.29,263,169.86,266.49,169.86,266.49Z"/><path class="cls-4" d="M196.93,259.56l-18.44-10.48s-5.18-3.31-8.53.22c-2.68,2.82-4,5.33-4.41,7.51,13.11,11.19,30.88,17.39,47.75,17.84l1.6-3.32Z"/><path class="cls-47" d="M215.6,271.6c-2.32,17.5-11.86,9.13-7,12.73,0,0,21.15,4,25.32-5.91C237.65,269.64,215.6,271.6,215.6,271.6Z"/><path class="cls-46" d="M221.32,284.25a49.51,49.51,0,0,1-13.15-.64c3.24-3.8,6.25-12.59,6.25-12.59a53.7,53.7,0,0,1,12.59.43A20.78,20.78,0,0,0,221.32,284.25Z"/><path class="cls-47" d="M215.36,276c-2.05.82-4.56,1.85-6.74,1.05-1-.34-1.19-1.43-.17-1.81a5.16,5.16,0,0,1,2.34.09,20.14,20.14,0,0,1,4.45,1.51l.47-1.07c-1.41-.59-2.83-1.15-4.2-1.84-.5-.25-5.59-3.5-2.88-3.87,1.39-.18,3.09,2.27,3.81,3.16a40.78,40.78,0,0,1,2.48,3.49c.48.75,1.61-.07,1.11-.8-1.29-1.92-5.56-8.94-8.57-6.56-3.8,3,6.17,6.79,7.78,7.49a.58.58,0,0,0,.47-1.07c-2.19-.95-4.67-1.88-7.1-1.65-1,.09-2.46,1-2.16,2.18,1,4,7.09,1.61,9.22.27.31-.2,0-.7-.31-.57Z"/><path class="cls-47" d="M227,271.45c4.16.81,7.35,2.59,5.76,6.38-1.79,4.24-6.58,5.91-11.45,6.42A20.78,20.78,0,0,1,227,271.45Z"/><path class="cls-47" d="M219,272.15c-2,3.33-4.15,6.2-4.7,10.14,0,.25-.46.23-.45,0,.17-3.9,2.8-7.13,4.89-10.25.1-.15.36,0,.26.14Z"/><path class="cls-47" d="M222.19,272.46c-2,3.34-4.15,6.21-4.7,10.15,0,.24-.45.22-.45,0,.17-3.9,2.8-7.13,4.89-10.25.1-.15.36,0,.26.13Z"/><path class="cls-58" d="M167.36,153.81s-12,52.78-17.08,58.31c0,0,1.07.86,2.83,2,.92.61,6.58-5.08,6.58-5.08,1.24.69-1.91,7.68-1.91,7.68.55.24,1.18.49,1.86.76,9.44-19.8,13.08-42.3,13.42-64.26C169.53,153.56,167.36,153.81,167.36,153.81Z"/><path class="cls-59" d="M173.06,153.25c-.34,22-4,44.46-13.42,64.26,3.59,1.42,8.72,3.11,11.83,2.8,8.51-.86,47.67.29,61.89-3.55-8.88-20-15.29-41.26-15.79-62.88C204.57,151,183.21,152.35,173.06,153.25Z"/><path class="cls-58" d="M248.34,208.56s-16.4-35-20.18-48.21c-.92-3.2-5-5.23-10.59-6.47.5,21.62,6.91,42.87,15.79,62.88,2.27-.61,3.91-1.35,4.68-2.25l-1.46-7.75,5.46,6.6A31.44,31.44,0,0,0,248.34,208.56Z"/><path class="cls-60" d="M169.1,211.47s-8.95,11.5-8.64,15.36,9.56.58,9.56.58l10.38-10.67Z"/><path class="cls-60" d="M228.74,211.45s9.1,11.38,8.83,15.25-13.37.08-13.37.08l-5.67-9.53Z"/><path class="cls-61" d="M206,196.22l-.89,3.44c-1.93,1.14-5,1.26-6.12,1.27h-.08c-1.1,0-4.19-.13-6.12-1.27l-.14-3.08a26,26,0,0,0-9.28.65c-12.53,3.24-17.19,15.15-17.78,16.76,2.18,1.84,4.66,3.78,7.45,5.72,2.45,1.71,4.84,3.21,7.1,4.52,0,0-3.12,24.22-2.11,24.94,22.34,16,42.72,1.06,42.72,1.06l-3-26a105.13,105.13,0,0,0,12.06-8.65q1.16-1,2.25-1.92a26.07,26.07,0,0,0-10-12.29A31.79,31.79,0,0,0,206,196.22Z"/><path class="cls-13" d="M191.32,190.42a26.72,26.72,0,0,1,1.61,9.08s6.83,1.92,12-.08l3.54-10.67Z"/><path class="cls-13" d="M162.05,176.46c.73,3.61,4.68,7,11.91,3.9l-.25-5.14A11.32,11.32,0,0,0,162.05,176.46Z"/><path class="cls-60" d="M164,171.19a5,5,0,0,0-1.91,5.27,11.32,11.32,0,0,1,11.66-1.24l-.18-3.55S168.59,168.2,164,171.19Z"/><path class="cls-62" d="M165.57,175.2c1.89-.08,4.25-1.09,5.79.52,1.1,1.15,1.06,3,1.18,4.51a.22.22,0,0,0,.43,0c0-1.64-.17-3.68-1.47-4.87-1.58-1.45-4.12-.84-5.95-.29-.07,0-.06.14,0,.13Z"/><path class="cls-62" d="M169,177a1.89,1.89,0,0,1,2.32.08,12.69,12.69,0,0,1,1.22,1.42c.18.2.47-.05.36-.27-.81-1.56-2.53-2.85-4.1-1.48-.14.12,0,.33.2.25Z"/><path class="cls-13" d="M236.43,173.71c-.37,3.66-4,7.39-11.47,5l-.25-5.15A11.32,11.32,0,0,1,236.43,173.71Z"/><path class="cls-60" d="M234,168.65a5,5,0,0,1,2.41,5.06,11.32,11.32,0,0,0-11.72-.1l-.18-3.54S229.12,166.13,234,168.65Z"/><path class="cls-62" d="M232.82,172.67c-1.9-.38-4.51-.74-5.94.91-1.13,1.3-1.07,3.32-.94,4.93,0,.27.43.28.42,0,0-1.42-.22-3.08.56-4.36,1.26-2.07,3.92-1.24,5.88-1.35.08,0,.1-.12,0-.13Z"/><path class="cls-62" d="M229.76,174.6c-1.7-1.21-3.29.31-3.92,1.92-.1.26.27.36.41.17a9.59,9.59,0,0,1,1.19-1.63,1.91,1.91,0,0,1,2.19-.17c.18.07.26-.19.13-.29Z"/><path class="cls-13" d="M214.67,189.14c4.5-2,8.06-4.79,9.35-8.36,2.87-7.92,3.87-13.35,2.5-21.21s-2.62-13.13-11-18.8c-6.75-4.58-47.41-9.83-43.89,26.49,0,0,0,1.63.25,3.89C181.71,184.09,198.31,190,214.67,189.14Z"/><path class="cls-58" d="M177.76,136.77c-11.27,6-10.94,23-10.94,23a8.1,8.1,0,0,1,4.65.27c.71-3.27,3.46-6.13,6-8.17a39.84,39.84,0,0,1,4.6-17A35.06,35.06,0,0,0,177.76,136.77Z"/><path class="cls-63" d="M186.13,148s0,0,0,.07S186.14,148.14,186.13,148Z"/><path class="cls-37" d="M189.9,133a34.75,34.75,0,0,0-7.8,1.84,39.84,39.84,0,0,0-4.6,17,33.32,33.32,0,0,1,4.95-3.25l2.35-8.22s1.28,6.77,1.33,7.65a12.88,12.88,0,0,1,3.3-.25A40.25,40.25,0,0,1,189.9,133Z"/><path class="cls-58" d="M209.27,135.61A40.56,40.56,0,0,0,189.9,133a40.25,40.25,0,0,0-.47,14.8c5.76-.09,17,.32,17,.32l1-4.25,1.87,5a28.45,28.45,0,0,1,9.61,1.42,33.85,33.85,0,0,0-4.09-14.17A21.71,21.71,0,0,0,209.27,135.61Z"/><path class="cls-37" d="M219.15,137.58a20,20,0,0,0-4.36-1.47,33.85,33.85,0,0,1,4.09,14.17,13.62,13.62,0,0,1,4.49,2.59A41.15,41.15,0,0,0,219.15,137.58Z"/><path class="cls-58" d="M227.13,147.36a14.38,14.38,0,0,0-8-9.78,41.15,41.15,0,0,1,4.22,15.29,8.34,8.34,0,0,1,3,5.63l4.13,8S228.29,152,227.13,147.36Z"/><path class="cls-64" d="M171.93,171.15c.32,3.34,1,8,2.6,10.93,2.65,4.83,11,9.94,21.75,10.4a43.32,43.32,0,0,0,18.39-3.34C198.31,190,181.71,184.09,171.93,171.15Z"/><path class="cls-62" d="M197.86,162a24.46,24.46,0,0,0-.42,2.85,2.42,2.42,0,0,0,.23,1.85,1,1,0,0,0,1.06.45,2.06,2.06,0,0,0,.64-.37s.47-.41.59-.37l.62,1.17a1.32,1.32,0,0,1-.74.6c-.3.13,0,.57.26.44a1.73,1.73,0,0,0,1.12-1.76,1.16,1.16,0,0,0-1.38-.91c-.32.08-.49.37-.77.49-1.4.6-1.32-.88-1.18-1.79.11-.74.58-2,.14-2.68a.09.09,0,0,0-.17,0Z"/><path class="cls-65" d="M188.91,161.1a1.46,1.46,0,1,1-2.86.19,1.46,1.46,0,1,1,2.86-.19Z"/><path class="cls-65" d="M212.33,160.93a1.45,1.45,0,1,1-1.54-1.62A1.59,1.59,0,0,1,212.33,160.93Z"/><path class="cls-62" d="M180.2,157.24a7.23,7.23,0,0,1,4.66-3.47.23.23,0,0,0-.06-.45c-1.87,0-4.53,1.9-4.83,3.83a.13.13,0,0,0,.23.09Z"/><path class="cls-62" d="M211.49,151.74c1.84.36,3.64.52,5.08,1.87a.3.3,0,0,0,.43-.43,6.48,6.48,0,0,0-5.51-1.73.15.15,0,0,0,0,.29Z"/><path class="cls-60" d="M190.55,170.1a5.28,5.28,0,1,1-5.5-4.69A5.11,5.11,0,0,1,190.55,170.1Z"/><path class="cls-60" d="M219.33,168.68a5.28,5.28,0,1,1-5.5-4.68A5.11,5.11,0,0,1,219.33,168.68Z"/><path class="cls-62" d="M195.62,168.8c.46,2.28,3.36,2.27,5.15,1.95.23,0,.18-.41-.05-.41-1.95,0-3.74.25-4.85-1.65a.14.14,0,0,0-.25.11Z"/><path class="cls-46" d="M180,215.37l1.09-5.42s13,5.16,17,10.75v24.66l-20.33-9Z"/><path class="cls-46" d="M184.46,214.49l.88-5.42s10.42,5.17,13.63,10.75v24.67l-16.33-9Z"/><path class="cls-46" d="M189.13,213.87l.6-5.42s7.11,5.16,9.3,10.75v24.66l-11.15-9Z"/><path class="cls-46" d="M217.17,215.24l-1.09-5.42s-13,5.17-17,10.75v24.67l20.33-9Z"/><path class="cls-46" d="M212.74,214.37l-.88-5.42s-10.42,5.16-13.63,10.75v24.66l16.33-9Z"/><path class="cls-46" d="M208.08,213.74l-.61-5.42s-7.11,5.17-9.3,10.75v24.67l11.15-9Z"/><path class="cls-14" d="M196.88,220.56v25.81s-16-7.75-20.79-8.75l-.76-21.88s-.51-4.3,3.58-3.53S195.6,219.56,196.88,220.56Z"/><path class="cls-14" d="M201.18,220.39v25.46s16-7.75,20.79-8.75l.76-21.88s.51-4.3-3.58-3.53S202.47,219.39,201.18,220.39Z"/><path class="cls-6" d="M196.88,246.37V220.56s2.81-1.75,4.3-.17v25.46S200.5,247.26,196.88,246.37Z"/><path class="cls-13" d="M163.73,223.7l12.94-3s-.45-6.56,1.94-6.56,1.76,4.87,1.76,4.87,4.45-3.86,6.25-2.56c1.39,1-1.23,3.2-2.53,4.19l-.67.49s3.48-2.63,5-1.06-3.66,2.78-3.66,2.78,4.76-1.53,4.16.71c-.32,1.17-13.43,10.51-18.86,12.38s-11.94-6.65-10-10.38C160.78,224.15,163.73,223.7,163.73,223.7Z"/><path class="cls-13" d="M231.71,222.65l-12.87,3.26s-2.6-6-4.72-4.94.66,5.13.66,5.13-5.72-1.39-6.73.59c-.78,1.51,2.56,2.28,4.17,2.56.49.09.82.13.82.13s-4.3-.74-4.9,1.34,4.52.79,4.52.79-4.93.83-3.37,2.54c.82.9,16.75,3.19,22.43,2.37s7.58-11.38,4.13-13.8C234.54,221.7,231.71,222.65,231.71,222.65Z"/><path class="cls-40" d="M195.42,163.92c.2-4.48-4.32-9-9.38-9a9.37,9.37,0,1,0,9.35,10.25c.49-.48,2.72-2.25,7.2.28.3,2.24,3,8.15,9.31,8.14a9.38,9.38,0,1,0-9.4-9.35S198.71,161.89,195.42,163.92Zm-9.33,8.76a8.42,8.42,0,1,1,8.4-8.45A8.44,8.44,0,0,1,186.09,172.68Zm25.81-.07a8.43,8.43,0,1,1,8.39-8.45A8.44,8.44,0,0,1,211.9,172.61Z"/><path class="cls-56" d="M206.89,129.61c-1.46,3.42,0,7.74,0,7.74l9.44-3.52a20.51,20.51,0,0,1-7.8-4.77Z"/><path class="cls-18" d="M218,125.74l-9.56,3.32a20.51,20.51,0,0,0,7.8,4.77l2-.73C216.87,131,218,125.74,218,125.74Z"/><path class="cls-24" d="M179.5,126.94l-2.28-.1a11.93,11.93,0,0,0-.45,10.36l2.73.12A17.26,17.26,0,0,1,179.5,126.94Z"/><path class="cls-17" d="M181.81,127l-2.31-.1a17.26,17.26,0,0,0,0,10.38l2.4.1A23.63,23.63,0,0,1,181.81,127Z"/><path class="cls-17" d="M203.22,128l-4.79-.21a26.54,26.54,0,0,0,.49,10.4l4.37.19A33.46,33.46,0,0,1,203.22,128Z"/><path class="cls-24" d="M219.26,132.73l-12.42,4.62a17.52,17.52,0,0,1,0-7.74h0l12.18-4.23a1.76,1.76,0,0,0,.06-1.39l-11.61,4.17-4.3-.18a33.46,33.46,0,0,0,.07,10.38l3.77.17h0l12.14-4.43A1.74,1.74,0,0,0,219.26,132.73Z"/><path class="cls-24" d="M198.43,127.77l-9.1-.4-4.64-.2-2.88-.13a23.63,23.63,0,0,0,.09,10.38l3.16.14,3.95.18,9.91.43A26.54,26.54,0,0,1,198.43,127.77Z"/><polygon class="cls-25" points="177.22 126.84 191.94 122.81 219.13 124 207.52 128.16 177.22 126.84"/></g></g></svg>