<svg xmlns="http://www.w3.org/2000/svg" xmlns:xlink="http://www.w3.org/1999/xlink" viewBox="0 0 401.93 364.92"><defs><style>.cls-1{isolation:isolate;}.cls-2{fill:url(#Degradado_sin_nombre_9);}.cls-3{opacity:0.7;mix-blend-mode:screen;fill:url(#Degradado_sin_nombre_5);}.cls-4{fill:#ffd524;}.cls-5{fill:#ffc32e;}.cls-6{fill:#ffe2b2;}.cls-7{fill:#3d4051;}.cls-8{fill:#ff582a;}.cls-9{fill:#ae1e0b;}.cls-10{fill:#009fda;}.cls-11{fill:#0071b8;}.cls-12{fill:#484d5b;}.cls-13{fill:#cadfef;}.cls-14{fill:#fff;}.cls-15{fill:#8d5115;}.cls-16{fill:#774206;}.cls-17{mix-blend-mode:multiply;}.cls-18{fill:#55b9ff;}.cls-19{fill:#008c41;}.cls-20{fill:#00b255;}</style><linearGradient id="Degradado_sin_nombre_9" x1="199.94" y1="407.94" x2="202.3" y2="6.02" gradientUnits="userSpaceOnUse"><stop offset="0" stop-color="#9bcfea"/><stop offset="1" stop-color="#166493"/></linearGradient><linearGradient id="Degradado_sin_nombre_5" x1="220.74" y1="160.73" x2="116.63" y2="279.4" gradientUnits="userSpaceOnUse"><stop offset="0" stop-color="#9bcfea"/><stop offset="1" stop-color="#9bcfea" stop-opacity="0"/></linearGradient></defs><title>Recurso 2</title><g class="cls-1"><g id="Capa_2" data-name="Capa 2"><g id="OBJECTS"><path class="cls-2" d="M401.93,0V364.92c-27.94-6.1-54.51-22.67-67.54-48.09-8.22-16-11.56-35.79-25.91-46.66-12-9.12-28.85-9.21-43.36-5s-27.59,12.11-41.46,18c-21.66,9.29-46.1,13.73-69,8.1S111,268.72,104.81,246c-6.68-24.61,3-54.63-13.74-73.92-18.67-21.58-56.81-13.13-77.52-32.78C.32,126.73-1.66,106.22,1.06,88.18s9.26-35.53,9.86-53.77c.39-12-2.63-24.92-9.5-34.41Z"/><path class="cls-3" d="M392.77,327.9c-24.82-1.46-50.7-16.44-56.58-40.61-5.23-21.51,5.45-47-7.69-64.84-10.12-13.73-30.81-15.71-46.55-9.14s-27.7,19.61-39.16,32.23-23.52,25.63-39.34,32a57,57,0,0,1-78.06-47.42c-1.65-17,4.32-33.68,6.14-50.63s-2.24-36.88-17.25-45c-12.84-6.93-28.52-2.64-42.76.57s-31.45,4.28-41.15-6.63c-11.11-12.49-5.23-32.15,2.46-47C46.38,55.3,64.42,28.63,65.39,0h-64c6.87,9.49,9.89,22.41,9.5,34.41-.6,18.24-7.14,35.73-9.86,53.77s-.74,38.55,12.49,51.1c20.71,19.65,58.85,11.2,77.52,32.78,16.7,19.29,7.06,49.31,13.74,73.92,6.19,22.74,27,39.71,49.87,45.33s47.32,1.19,69-8.1c13.87-5.94,27-13.86,41.46-18s31.34-4.11,43.36,5c14.35,10.87,17.69,30.65,25.91,46.66,13,25.42,39.6,42,67.54,48.09V328C398.89,328.09,395.83,328.07,392.77,327.9Zm-95.63-86.42c-6.65,4-22.19,3.7-22.2-7,0-9,13.55-15,21.09-14.78C310.16,220.05,305.88,236.25,297.14,241.48Zm26.55-3.15a4.38,4.38,0,0,1-2.48,2.64,5,5,0,0,1-3.95-.47,7.73,7.73,0,0,1-4-5.17c-.48-2.34.16-5.76,2.64-6.75a5.91,5.91,0,0,1,5.45,1.1,8,8,0,0,1,2.58,4.95A7.59,7.59,0,0,1,323.69,238.33Z"/><path class="cls-4" d="M331.14,236.21l43.32-68a4.36,4.36,0,0,1,6-1.33l4.47,2.84a4.36,4.36,0,0,1,1.33,6l-43.32,68-7.54,5.1-7.08,4.79,1.35-8.43Z"/><path class="cls-5" d="M337.05,240l45.67-71.67,2.24,1.42a4.36,4.36,0,0,1,1.33,6l-43.32,68Z"/><polygon class="cls-6" points="331.14 236.21 342.97 243.74 335.43 248.84 328.35 253.63 329.7 245.2 331.14 236.21"/><polygon class="cls-7" points="329.7 245.2 335.43 248.84 328.35 253.63 329.7 245.2"/><path class="cls-8" d="M370,175.18l4.44-7a4.36,4.36,0,0,1,6-1.33l4.47,2.84a4.36,4.36,0,0,1,1.33,6l-4.44,7Z"/><rect class="cls-7" x="367.6" y="178.57" width="14.03" height="4.89" transform="translate(593.29 534.97) rotate(-147.5)"/><path class="cls-9" d="M375.93,179l6.79-10.65,2.24,1.42a4.36,4.36,0,0,1,1.33,6l-4.44,7Z"/><path class="cls-10" d="M55.06,111.19l76.48-25.5a4.37,4.37,0,0,1,5.53,2.77l1.68,5A4.37,4.37,0,0,1,136,99L59.5,124.5l-9.07-.8L41.92,123l6.36-5.7Z"/><path class="cls-11" d="M57.28,117.84,137.91,91l.84,2.52A4.37,4.37,0,0,1,136,99L59.5,124.5Z"/><polygon class="cls-6" points="55.06 111.19 59.5 124.5 50.43 123.7 41.92 122.96 48.28 117.26 55.06 111.19"/><polygon class="cls-7" points="48.28 117.26 50.43 123.7 41.92 122.96 48.28 117.26"/><path class="cls-4" d="M123.7,88.31l7.84-2.62a4.37,4.37,0,0,1,5.53,2.77l1.68,5A4.37,4.37,0,0,1,136,99l-7.84,2.61Z"/><rect class="cls-7" x="116.59" y="93.29" width="14.03" height="4.89" transform="translate(71.87 243.27) rotate(-108.44)"/><path class="cls-5" d="M125.92,95l12-4,.84,2.52A4.37,4.37,0,0,1,136,99l-7.84,2.61Z"/><path class="cls-7" d="M207.92,116.29,154.34,134.6l9.46,27.26a62.11,62.11,0,0,0,53.49-18.57Z"/><polygon class="cls-7" points="238.81 107.51 190.56 151.19 125.61 146.79 132.37 140.69 136.01 137.39 173.87 103.1 224.82 106.56 229.72 106.9 238.81 107.51"/><polygon class="cls-12" points="229.72 106.9 188.22 144.47 132.37 140.69 136.01 137.39 173.87 103.1 224.82 106.56 229.72 106.9"/><polygon class="cls-4" points="123.56 184.24 120.94 184 124.37 145.88 181.37 122.48 182.37 124.92 126.85 147.71 123.56 184.24"/><path class="cls-4" d="M123.64,170l-.54-.17c-1.62.62-7.28,3.77-8.39,17.94l11.73,1.81C129.48,175.78,125,171.11,123.64,170Z"/><path class="cls-13" d="M357.34,85.2a6.28,6.28,0,1,1,8.48,2.65A6.3,6.3,0,0,1,357.34,85.2Zm10.21-5.35a5.24,5.24,0,1,0-2.21,7.08A5.25,5.25,0,0,0,367.55,79.85Z"/><rect class="cls-14" x="320.77" y="96.86" width="24.04" height="1.81" transform="translate(264.99 -242.4) rotate(62.36)"/><polygon class="cls-13" points="305.35 127.68 300.33 132.73 306.24 128.76 311.42 124.47 310.53 123.4 305.35 127.68"/><rect class="cls-7" x="301.26" y="104.56" width="65.59" height="4.1" transform="translate(8.66 237.29) rotate(-39.58)"/><path class="cls-14" d="M317.56,125.27a3.88,3.88,0,1,1,.52-5.46A3.87,3.87,0,0,1,317.56,125.27Z"/><path class="cls-13" d="M316.5,124a2.22,2.22,0,1,1,.3-3.12A2.22,2.22,0,0,1,316.5,124Z"/><polygon class="cls-13" points="292.91 103.94 285.91 105.19 292.53 102.59 299 100.77 299.38 102.12 292.91 103.94"/><rect class="cls-7" x="293.78" y="90.3" width="65.59" height="4.1" transform="translate(-12.8 91.87) rotate(-15.71)"/><rect class="cls-7" x="360.59" y="79.76" width="11.22" height="1.6" transform="translate(4.42 179.11) rotate(-27.65)"/><path class="cls-13" d="M327.61,100.48h0a1.18,1.18,0,0,1,.5-1.59l8.09-4.24a1.18,1.18,0,0,1,1.6.5h0a1.18,1.18,0,0,1-.5,1.59L329.21,101A1.19,1.19,0,0,1,327.61,100.48Z"/><path class="cls-14" d="M361.08,88.15a4.35,4.35,0,1,1,1.83-5.87A4.35,4.35,0,0,1,361.08,88.15Z"/><path class="cls-13" d="M360.19,86.46a2.44,2.44,0,1,1,1-3.29A2.45,2.45,0,0,1,360.19,86.46Z"/><rect class="cls-14" x="375.18" y="65.41" width="4.66" height="18.46" rx="1.58" transform="translate(268.51 -294.41) rotate(62.36)"/><path class="cls-13" d="M232.89,278.45s-8.13-19.6-24.14-21.42-47.32,16.62-101.2,16.62L97,289.67H232.89Z"/><path class="cls-14" d="M232.89,278.45s1.34-17.17-7.22-21.54c-10.6-5.42-49.87,6.19-96.88-26.45l-14.56,28.63s17.26,11.06,47.07,14.2C199.4,277.29,215.05,254.78,232.89,278.45Z"/><path class="cls-13" d="M232.89,278.45S241,258.85,257,257s47.32,16.62,101.2,16.62l10.55,16H232.89Z"/><path class="cls-14" d="M232.89,276.16s3.88-19.61,19.9-21.71,52.42,12.65,62.61,13.74,40.41,2,40.41,2l5.58,8.26s-35-.34-45.63-1.52c-13.1-1.46-41.49-17.84-60.78-15.11s-21.48,16.65-21.48,16.65Z"/><rect class="cls-15" x="90.44" y="289.67" width="287.57" height="8.01"/><path class="cls-15" d="M243.08,304.23H222.7a10.56,10.56,0,0,1-10.56-10.56h41.5A10.56,10.56,0,0,1,243.08,304.23Z"/><path class="cls-16" d="M241.3,298.33H224.49a8.71,8.71,0,0,1-8.71-8.71h0l17.11-13.47L250,289.62h0A8.71,8.71,0,0,1,241.3,298.33Z"/><path class="cls-4" d="M250,289.62a8.75,8.75,0,0,1-1.66,5.13l-15.45-12.16-15.45,12.16a8.69,8.69,0,0,1-1.66-5.13l17.11-13.46Z"/><g class="cls-17"><path class="cls-18" d="M114.37,76.23a3.68,3.68,0,0,1-4.87,1.83L101,74.21a.52.52,0,1,1,.43-.95l8.48,3.85a2.64,2.64,0,1,0,2.18-4.81l-9.79-4.45a1.85,1.85,0,0,0-1.53,3.36l8.1,3.68a1.09,1.09,0,0,0,.9-2l-6-2.72a.52.52,0,1,1,.43-1l6,2.72a2.13,2.13,0,0,1-1.76,3.88l-8.1-3.68a2.89,2.89,0,0,1,2.39-5.26l9.79,4.46A3.68,3.68,0,0,1,114.37,76.23Z"/></g><g class="cls-17"><path class="cls-18" d="M101.07,150l.58-.29c2-1,3-2.27,2.83-3.52-.16-1.52-2-2.63-4.68-3.12.26-2.74-.32-4.78-1.74-5.34s-3.25.5-5,2.67c-2.3-1.51-4.37-1.95-5.54-1-.95.82-1.08,2.41-.37,4.51.07.2.15.4.23.61-2.25,1-3.58,2.4-3.42,3.82.11,1.07,1,1.94,2.51,2.53a11.08,11.08,0,0,0,2.16.59c-.26,2.75.32,4.78,1.75,5.35s3.24-.51,4.94-2.68a11.66,11.66,0,0,0,2,1.06c1.48.59,2.75.6,3.57-.1C102,154.22,102,152.31,101.07,150Zm.54-5.38c1.13.45,1.81,1.05,1.88,1.68.08.8-.76,1.72-2.3,2.53l-.53.26a20.64,20.64,0,0,0-1.53-2.6,22.22,22.22,0,0,0,.55-2.41A10.43,10.43,0,0,1,101.61,144.63Zm-7,6q-.9.09-1.74.12c-.4-.4-.79-.83-1.19-1.29s-.84-1-1.22-1.56c.19-.61.41-1.23.66-1.87s.53-1.25.81-1.81c.62-.12,1.28-.22,2-.3s1.18-.09,1.75-.11c.39.4.79.82,1.18,1.28s.85,1,1.22,1.57c-.18.6-.4,1.23-.66,1.87s-.52,1.24-.8,1.81C95.93,150.48,95.27,150.58,94.6,150.65Zm1.36.82c-.27.47-.54.91-.82,1.31-.42-.31-.86-.67-1.3-1.06l.87-.08C95.13,151.6,95.55,151.54,96,151.47Zm-4.47-.69q-.88,0-1.68-.12c.08-.49.18-1,.31-1.52.25.33.52.66.79,1Zm-1.75-3.92a18.22,18.22,0,0,1-1-1.75,16.78,16.78,0,0,1,1.92-.59c-.17.37-.34.76-.5,1.16S89.88,146.47,89.74,146.86Zm2.78-3.74c.27-.47.54-.9.82-1.3a14.71,14.71,0,0,1,1.29,1.06l-.85.07Zm4.48.7c.59,0,1.15.06,1.67.12-.07.48-.18,1-.3,1.51-.26-.33-.52-.66-.8-1S97.19,144,97,143.82Zm1.74,3.91a18.83,18.83,0,0,1,1,1.76,18.12,18.12,0,0,1-1.92.59c.17-.38.34-.76.5-1.16S98.61,148.12,98.74,147.73Zm-1-9.07c.87.35,1.31,2,1.1,4.27a20.27,20.27,0,0,0-2.76-.12A18.67,18.67,0,0,0,94,141C95.39,139.18,96.81,138.31,97.69,138.66Zm-9.47,1.56c.49-.42,1.38-.38,2.52.07a10.64,10.64,0,0,1,1.77.94,20.12,20.12,0,0,0-1.26,2.12,21.84,21.84,0,0,0-2.9.83c-.07-.18-.15-.37-.21-.55C87.58,142,87.61,140.74,88.22,140.22ZM85,148.29c-.09-.88,1-1.93,2.84-2.79a19.57,19.57,0,0,0,1.52,2.59,20.53,20.53,0,0,0-.55,2.41C86.54,150.08,85.1,149.22,85,148.29Zm5.8,7.64c-.88-.35-1.31-2-1.11-4.27a20.34,20.34,0,0,0,2.76.12,19.67,19.67,0,0,0,2.09,1.81C93.1,155.41,91.67,156.28,90.8,155.93Zm9.46-1.55c-.71.61-2.34.24-4.28-1a20.83,20.83,0,0,0,1.26-2.12,19.23,19.23,0,0,0,2.89-.84C100.89,152.32,100.93,153.81,100.26,154.38Z"/><path class="cls-18" d="M95,145.49A1.95,1.95,0,1,0,96.05,148,1.95,1.95,0,0,0,95,145.49Z"/></g><g class="cls-17"><path class="cls-18" d="M371.52,232.16a5.39,5.39,0,0,0,2.79,6.37l-.76,2.57a3,3,0,0,0-2.71,1.93l5.7,1.68a3,3,0,0,0-1.22-3.09l.76-2.57a5.4,5.4,0,0,0,5.8-3.83l2-6.82-10.36-3.06Z"/><path class="cls-18" d="M377,245.35l-6.81-2a.55.55,0,0,0-.69.37.56.56,0,0,0,.37.7l6.82,2a.57.57,0,0,0,.69-.38A.55.55,0,0,0,377,245.35Z"/><path class="cls-18" d="M368.18,228.22a3,3,0,0,0,2,3.73l.59.17.34-1.14-.6-.18a1.81,1.81,0,0,1,1-3.47l.59.17.34-1.14-.59-.17A3,3,0,0,0,368.18,228.22Z"/><path class="cls-18" d="M384.79,230l-.59-.18-.34,1.15.6.17a1.81,1.81,0,0,1-1,3.48l-.59-.18-.34,1.14.6.18a3,3,0,1,0,1.69-5.76Z"/></g><g class="cls-17"><path class="cls-18" d="M374.56,119.83l-1.95-3.42-5.17,3,1.95,3.42a5.39,5.39,0,1,0,5.17-3Zm1.49,8.61A3.74,3.74,0,0,1,371,127l0,0,6.49-3.7,0,0A3.75,3.75,0,0,1,376.05,128.44Z"/><path class="cls-18" d="M367,118.48l5.05-2.88a1.06,1.06,0,1,0-1.05-1.85L366,116.64a1.06,1.06,0,1,0,1.06,1.84Z"/></g><g class="cls-17"><path class="cls-18" d="M272.79,87.73a4,4,0,0,0,0-5.29,4,4,0,0,0-1.53-1.09L271,79.61a2.18,2.18,0,0,0-2-1.85l-6.73-.48a2.19,2.19,0,0,0-2.25,1.5l-.58,1.77a4,4,0,0,0-2.3,6.09l2.47-2.14.55.64a6.3,6.3,0,0,0-.56,7.82l-1.17,1a.69.69,0,0,0,.91,1l1.17-1a6.3,6.3,0,0,0,7.85.57l1.15,1.33a.69.69,0,0,0,1.05-.91l-1.15-1.32a6.3,6.3,0,0,0,.57-7.87l.65-.57Zm-3.61.66-4.08,2.12a.67.67,0,0,1-.37.07.66.66,0,0,1-.45-.21l-2.89-3a.7.7,0,0,1,0-1,.72.72,0,0,1,1,0L264.92,89l3.62-1.88a.7.7,0,1,1,.64,1.24Zm-1.58-6.66,2.14,2.47-.66.57a6.17,6.17,0,0,0-3-1.53l.06-.91a.83.83,0,0,0-.76-.88.84.84,0,0,0-.89.76l-.06.91a6.38,6.38,0,0,0-3.21,1.1l-.55-.63,2.48-2.15a4.06,4.06,0,0,0-2.68-1l.44-1.35a1.28,1.28,0,0,1,1.3-.87l6.74.48a1.28,1.28,0,0,1,1.16,1.07l.21,1.34A4,4,0,0,0,267.6,81.73Z"/><path class="cls-18" d="M273.69,79.63a.46.46,0,0,0-.52.76,4.45,4.45,0,0,1,2,3.88c0,.6.91.67.93.07A5.38,5.38,0,0,0,273.69,79.63Z"/><path class="cls-18" d="M275.5,78.46a.46.46,0,0,0-.52.77,4.44,4.44,0,0,1,2,3.88c0,.59.9.66.92.06A5.36,5.36,0,0,0,275.5,78.46Z"/><path class="cls-18" d="M257.09,78.44a.46.46,0,0,1,.41.83A4.46,4.46,0,0,0,255,82.82c-.06.6-1,.53-.92-.06A5.38,5.38,0,0,1,257.09,78.44Z"/><path class="cls-18" d="M255.47,77a.46.46,0,0,1,.41.83,4.44,4.44,0,0,0-2.55,3.55c-.06.6-1,.53-.92-.06A5.36,5.36,0,0,1,255.47,77Z"/></g><g class="cls-17"><path class="cls-18" d="M171.9,80.83l.32,1.49-3.78.84.3,1.33,3.41-.75.33,1.49-3.41.76.29,1.35,3.89-.86.33,1.49-5.76,1.27-1.58-7.17Z"/><path class="cls-18" d="M177.8,81.77l.26,1.17-4.56,1-.25-1.17Zm.49,2.21.26,1.16-4.56,1L173.73,85Z"/><path class="cls-18" d="M188.54,81l.77,3.49-1.82.4-.66-3a.9.9,0,0,0-1.13-.81,1.12,1.12,0,0,0-.77,1.47l.6,2.73-1.82.4-.65-3a.9.9,0,0,0-1.13-.81,1.13,1.13,0,0,0-.78,1.47l.6,2.73-1.81.4L178.73,81l1.81-.4.2.91a2,2,0,0,1,1.58-1.37,1.87,1.87,0,0,1,2.11.83,2,2,0,0,1,1.66-1.66A2,2,0,0,1,188.54,81Z"/><path class="cls-18" d="M192.13,79.6a1.2,1.2,0,0,0-.81,1.58c.17.81.74,1.24,1.4,1.1a1.16,1.16,0,0,0,.94-.86l1.51.47a3,3,0,0,1-5.68-.29,2.76,2.76,0,0,1,2.23-3.48,2.8,2.8,0,0,1,2.77.76l-1.15,1.06A1.3,1.3,0,0,0,192.13,79.6Z"/><path class="cls-18" d="M196.61,75.72c-.05-.23-.25-.32-.54-.25a1.93,1.93,0,0,0-1,.77l-.57-.7a3,3,0,0,1,1.56-1c.83-.18,1.53.12,1.67.77a2.29,2.29,0,0,1-.49,1.55l-.66,1,1.76-.39.19.86-3.13.69-.16-.71,1.15-1.86A1.24,1.24,0,0,0,196.61,75.72Z"/></g><g class="cls-17"><path class="cls-18" d="M132.07,198.29a7.88,7.88,0,0,0-3.81,6.13,8.92,8.92,0,0,0,2.6,6.81,11.8,11.8,0,0,0,3.76,2.45c3.81,1.65,8.91,1.94,12.39-.61a4.31,4.31,0,0,0,2.06-3.46c-.12-1.6-1.54-1.9-2.74-2.46a6.11,6.11,0,0,1-2.43-2.6c-1.32-2.26-2.47-4.79-4.69-6.19a6.92,6.92,0,0,0-4.77-.92A7.15,7.15,0,0,0,132.07,198.29Zm6.39,15.19a1.58,1.58,0,1,1,.83-2.08A1.59,1.59,0,0,1,138.46,213.48Zm5.61-4.67a1.16,1.16,0,1,1-1.46-.74A1.17,1.17,0,0,1,144.07,208.81Zm-9.29.28a1.58,1.58,0,1,1-2.08-.84A1.58,1.58,0,0,1,134.78,209.09Zm-3.28-2a1.58,1.58,0,1,1,.83-2.07A1.58,1.58,0,0,1,131.5,207.14Zm7.13-5.57a1.58,1.58,0,1,1-2.08-.84A1.58,1.58,0,0,1,138.63,201.57Zm-4.6-.82a1.58,1.58,0,1,1-2.08-.84A1.58,1.58,0,0,1,134,200.75Z"/><path class="cls-18" d="M122.42,214.26s0,0,0,.06h0l.06.06,0,0,.12.08.09,0,.08,0,.12.07h0c2.3,1.15,11.49,4.1,17.25,5.73h0l.41.12h0c.4.11.9.24,1.42.36l.95.21.3.07.84.15.45.06h.05a1.37,1.37,0,0,0,1,.9,1.73,1.73,0,0,0,.32,0,6.73,6.73,0,0,0,1.25-.24,2,2,0,0,1,1.73.43l.09.06.2.17a4.7,4.7,0,0,0-.79-1.79,3.72,3.72,0,0,0-1.65-1.27,2,2,0,0,0-1.43,0,1.38,1.38,0,0,0-.29.17,12.66,12.66,0,0,0-1.28-.52c-.86-.32-1.9-.66-2.62-.86C134.64,216.55,122.58,213.67,122.42,214.26Z"/></g><polygon class="cls-14" points="79.29 48.45 77.33 50.64 78.02 53.51 75.32 52.31 72.82 53.86 73.11 50.93 70.87 49.02 73.75 48.4 74.87 45.67 76.35 48.22 79.29 48.45"/><polygon class="cls-14" points="151.65 172.67 149.69 174.87 150.38 177.73 147.69 176.54 145.18 178.09 145.48 175.16 143.23 173.25 146.11 172.63 147.23 169.9 148.72 172.45 151.65 172.67"/><polygon class="cls-14" points="230.85 85.96 227.97 86.54 226.81 89.25 225.36 86.68 222.43 86.42 224.42 84.25 223.77 81.38 226.45 82.61 228.98 81.1 228.64 84.02 230.85 85.96"/><polygon class="cls-14" points="384.67 52.24 381.78 52.82 380.62 55.53 379.18 52.96 376.25 52.7 378.24 50.53 377.59 47.66 380.26 48.89 382.8 47.38 382.45 50.3 384.67 52.24"/><polygon class="cls-14" points="354.62 151.56 351.73 152.14 350.57 154.85 349.12 152.28 346.19 152.01 348.18 149.85 347.53 146.97 350.21 148.2 352.74 146.69 352.4 149.62 354.62 151.56"/><polygon class="cls-14" points="386.71 267.15 383.82 267.73 382.67 270.44 381.22 267.87 378.29 267.6 380.28 265.44 379.63 262.56 382.31 263.79 384.84 262.28 384.5 265.21 386.71 267.15"/><polygon class="cls-14" points="54.92 152.26 52.03 152.84 50.87 155.55 49.43 152.98 46.49 152.72 48.49 150.55 47.84 147.68 50.51 148.91 53.04 147.4 52.7 150.32 54.92 152.26"/><path class="cls-8" d="M278.39,132.36l-5.48.95-4.38-3.43a10.25,10.25,0,0,0-9.29-1.9c-3.85,1.2-8.22,5-10.32,15.53-4.2,21,15.34,24.19,15.34,24.19s18.72,6.43,24.95-14.07c3.12-10.25,1.08-15.68-1.74-18.55A10.25,10.25,0,0,0,278.39,132.36Z"/><path class="cls-9" d="M270.14,168.63a21.81,21.81,0,0,1-5.88-.94s-19.53-3.18-15.33-24.18C251,133,255.4,129.19,259.24,128a10.23,10.23,0,0,1,9.29,1.9l1.57,1.22c-3.67,1.41-7.68,5.36-9.67,15.3C257.74,159.81,264.73,166,270.14,168.63Z"/><path class="cls-7" d="M282,126A13.2,13.2,0,0,0,269.3,137.6c-.28,2.07,2.91,2.83,3.19.73a10,10,0,0,1,9.6-9C284.19,129.21,284.09,125.93,282,126Z"/><path class="cls-19" d="M269.44,121.94c3.11,5.22.71,12.4.71,12.4s-7.46-1.28-10.58-6.49-.71-12.39-.71-12.39S266.32,116.73,269.44,121.94Z"/><path class="cls-15" d="M323.16,176.78c-3.19.82-13.69,6.34-19.31,9.72-29,17.39-80.15,50.93-78.61,53.49s55.2-26.85,84.16-44.24c5.63-3.38,15.4-9.9,17.65-12.47Z"/><path class="cls-14" d="M309.4,195.75c5.63-3.38,15.4-9.9,17.65-12.47l-3.89-6.49c-3.19.81-13.69,6.33-19.31,9.71l-1.91,1.15,5.55,9.25Z"/><path class="cls-16" d="M230.53,238.57c-3.12,1.32-5,1.87-5.3,1.42-1.53-2.56,49.65-36.11,78.61-53.5,5.63-3.38,16.14-8.88,19.31-9.7l1.56,2.59c-3.18.82-13.68,6.33-19.31,9.71C281.57,203.4,242.69,228.64,230.53,238.57Z"/><path class="cls-13" d="M324.7,179.38c-3.17.83-13.67,6.33-19.3,9.71l-1.9,1.15L302,187.65c.64-.4,1.26-.77,1.89-1.15,5.63-3.38,16.13-8.9,19.31-9.71Z"/><path class="cls-7" d="M322.75,181.24a6.83,6.83,0,0,1-.38-5.68,9.63,9.63,0,0,1,5-5,18.3,18.3,0,0,1,10.12-1.64,23.68,23.68,0,0,1,9.11,3.22c-.44.05-.87.1-1.3.17a4,4,0,0,0-.52.1,10.17,10.17,0,0,0-7.42,4.76c-1.09,1.78-1.9,3.73-3.37,5.3a7.94,7.94,0,0,1-1.19,1A6.83,6.83,0,0,1,322.75,181.24Z"/><path class="cls-5" d="M42.63,45.17l20.75,39a2.27,2.27,0,0,1-.94,3.07L56.6,90.31a2.28,2.28,0,0,1-3.08-.93l-20.75-39a2.28,2.28,0,0,1,.94-3.08l5.84-3.11A2.28,2.28,0,0,1,42.63,45.17Z"/><path class="cls-4" d="M33.71,47.35a2.27,2.27,0,0,0-.94,3.07l20.75,39a2.28,2.28,0,0,0,3.08.94l2.92-1.56-22.89-43Z"/><path class="cls-5" d="M31.74,36.6h0A2.38,2.38,0,0,0,30.49,39l.22,1.75A12.36,12.36,0,0,0,32.05,45l1.43,2.67L36.72,46,40,44.23l-1.42-2.67a12.18,12.18,0,0,0-2.8-3.5L34.42,36.9A2.36,2.36,0,0,0,31.74,36.6Z"/><path class="cls-4" d="M33.77,36.51a2.09,2.09,0,0,0,0,.75L34,39a12.18,12.18,0,0,0,1.35,4.27L36.73,46l-3.26,1.73L32.05,45a12.37,12.37,0,0,1-1.34-4.27L30.5,39a2.34,2.34,0,0,1,1.23-2.38h0A2.34,2.34,0,0,1,33.77,36.51Z"/><rect class="cls-7" x="33.17" y="48.63" width="11.17" height="2.27" transform="translate(-18.85 24.06) rotate(-28.04)"/><rect class="cls-7" x="35.34" y="52.72" width="11.17" height="2.27" transform="translate(-20.51 25.57) rotate(-28.04)"/><path class="cls-7" d="M50.29,65.41c2,3.78,2.52,7.43,1.14,8.17s-4.12-1.73-6.13-5.51-2.52-7.43-1.15-8.16S48.28,61.64,50.29,65.41Z"/><rect class="cls-7" x="49.48" y="79.26" width="11.17" height="2.27" transform="translate(-31.33 35.33) rotate(-28.04)"/><rect class="cls-7" x="51.66" y="83.35" width="11.17" height="2.27" transform="translate(-33 36.83) rotate(-28.04)"/><path class="cls-19" d="M228.54,205.74l-29.32,33a2.27,2.27,0,0,1-3.21.18l-4.94-4.39a2.27,2.27,0,0,1-.2-3.21l29.32-33a2.28,2.28,0,0,1,3.22-.19l4.94,4.39A2.28,2.28,0,0,1,228.54,205.74Z"/><path class="cls-20" d="M223.4,198.13a2.28,2.28,0,0,0-3.21.19l-29.32,33a2.28,2.28,0,0,0,.19,3.21l2.48,2.19,32.34-36.38Z"/><path class="cls-19" d="M232.8,192.54h0a2.4,2.4,0,0,0-2.68-.33l-1.57.81a12.15,12.15,0,0,0-3.54,2.75L223,198l2.75,2.44,2.75,2.44,2-2.26a12.18,12.18,0,0,0,2.31-3.83l.62-1.66A2.39,2.39,0,0,0,232.8,192.54Z"/><path class="cls-20" d="M233.58,194.42a2.11,2.11,0,0,0-.71.23l-1.57.82a12.29,12.29,0,0,0-3.54,2.74l-2,2.26L223,198l2-2.25a12,12,0,0,1,3.54-2.75l1.58-.81a2.37,2.37,0,0,1,2.66.33h0A2.32,2.32,0,0,1,233.58,194.42Z"/><rect class="cls-7" x="221.75" y="198.11" width="2.27" height="11.17" transform="translate(-77.44 234.98) rotate(-48.37)"/><rect class="cls-7" x="218.67" y="201.57" width="2.27" height="11.17" transform="translate(-81.06 233.84) rotate(-48.37)"/><path class="cls-7" d="M212.22,220c-2.84,3.2-6.09,5-7.26,3.91s.19-4.47,3-7.67,6.09-4.94,7.26-3.91S215.06,216.75,212.22,220Z"/><rect class="cls-7" x="198.7" y="224.05" width="2.27" height="11.17" transform="translate(-104.56 226.44) rotate(-48.37)"/><rect class="cls-7" x="195.62" y="227.51" width="2.27" height="11.17" transform="translate(-108.18 225.29) rotate(-48.37)"/><path class="cls-9" d="M207.61,186.11l-42.42,12.2a2.27,2.27,0,0,1-2.81-1.56l-1.83-6.36a2.27,2.27,0,0,1,1.55-2.82l42.42-12.2a2.28,2.28,0,0,1,2.82,1.56l1.82,6.36A2.28,2.28,0,0,1,207.61,186.11Z"/><path class="cls-8" d="M207.33,176.93a2.28,2.28,0,0,0-2.82-1.56l-42.41,12.2a2.28,2.28,0,0,0-1.55,2.82l.92,3.18,46.78-13.46Z"/><path class="cls-9" d="M218.26,177.23h0a2.37,2.37,0,0,0-2.08-1.71l-1.77-.16a12.22,12.22,0,0,0-4.46.43l-2.9.84,1,3.53,1,3.54,2.91-.84a12.52,12.52,0,0,0,4-2l1.41-1.07A2.39,2.39,0,0,0,218.26,177.23Z"/><path class="cls-8" d="M217.92,179.24a2.19,2.19,0,0,0-.72-.19l-1.77-.15a12.22,12.22,0,0,0-4.46.43l-2.9.84-1-3.54,2.9-.84a12.22,12.22,0,0,1,4.46-.43l1.77.16a2.37,2.37,0,0,1,2.08,1.7h0A2.37,2.37,0,0,1,217.92,179.24Z"/><rect class="cls-7" x="202.78" y="175.77" width="2.27" height="11.17" transform="translate(-42.2 63.45) rotate(-16.05)"/><rect class="cls-7" x="198.33" y="177.05" width="2.27" height="11.17" transform="translate(-42.72 62.27) rotate(-16.05)"/><path class="cls-7" d="M186.21,189.39c-4.11,1.18-7.79.93-8.22-.58s2.55-3.67,6.66-4.85,7.79-.93,8.22.57S190.32,188.21,186.21,189.39Z"/><rect class="cls-7" x="169.43" y="185.37" width="2.27" height="11.17" transform="translate(-46.15 54.6) rotate(-16.05)"/><rect class="cls-7" x="164.98" y="186.65" width="2.27" height="11.17" transform="translate(-46.67 53.42) rotate(-16.05)"/></g></g></g></svg>